<?xml version="1.0" encoding="UTF-8" standalone="no"?>
<!DOCTYPE svg PUBLIC "-//W3C//DTD SVG 1.1//EN"
 "http://www.w3.org/Graphics/SVG/1.1/DTD/svg11.dtd">
<!-- Generated by graphviz version 12.2.1 (20241206.2353)
 -->
<!-- Title: G Pages: 1 -->
<svg width="2979pt" height="1913pt"
 viewBox="0.00 0.00 2979.20 1912.78" xmlns="http://www.w3.org/2000/svg" xmlns:xlink="http://www.w3.org/1999/xlink">
<g id="graph0" class="graph" transform="scale(1 1) rotate(0) translate(21.6 1891.18)">
<title>G</title>
<polygon fill="#111111" stroke="none" points="-21.6,21.6 -21.6,-1891.18 2957.6,-1891.18 2957.6,21.6 -21.6,21.6"/>
<!-- dist/web/assets/index&#45;B9UXU8hI.js -->
<g id="node1" class="node">
<title>dist/web/assets/index&#45;B9UXU8hI.js</title>
<path fill="none" stroke="#cfffac" d="M219.21,-1420.58C219.21,-1420.58 9.04,-1420.58 9.04,-1420.58 5.08,-1420.58 1.12,-1416.62 1.12,-1412.67 1.12,-1412.67 1.12,-1404.75 1.12,-1404.75 1.12,-1400.79 5.08,-1396.83 9.04,-1396.83 9.04,-1396.83 219.21,-1396.83 219.21,-1396.83 223.17,-1396.83 227.12,-1400.79 227.12,-1404.75 227.12,-1404.75 227.12,-1412.67 227.12,-1412.67 227.12,-1416.62 223.17,-1420.58 219.21,-1420.58"/>
<text text-anchor="middle" x="114.12" y="-1403.28" font-family="Arial" font-size="14.00" fill="#cfffac">dist/web/assets/index&#45;B9UXU8hI.js</text>
</g>
<!-- src/core/capi/capi_check_stack.mjs -->
<g id="node2" class="node">
<title>src/core/capi/capi_check_stack.mjs</title>
<path fill="none" stroke="#ff6c60" d="M220.33,-1462.58C220.33,-1462.58 7.92,-1462.58 7.92,-1462.58 3.96,-1462.58 0,-1458.62 0,-1454.67 0,-1454.67 0,-1446.75 0,-1446.75 0,-1442.79 3.96,-1438.83 7.92,-1438.83 7.92,-1438.83 220.33,-1438.83 220.33,-1438.83 224.29,-1438.83 228.25,-1442.79 228.25,-1446.75 228.25,-1446.75 228.25,-1454.67 228.25,-1454.67 228.25,-1458.62 224.29,-1462.58 220.33,-1462.58"/>
<text text-anchor="middle" x="114.12" y="-1445.28" font-family="Arial" font-size="14.00" fill="#ff6c60">src/core/capi/capi_check_stack.mjs</text>
</g>
<!-- src/core/compiler/compiler.mjs -->
<g id="node3" class="node">
<title>src/core/compiler/compiler.mjs</title>
<path fill="none" stroke="#ff6c60" d="M497.71,-1386.58C497.71,-1386.58 313.79,-1386.58 313.79,-1386.58 309.83,-1386.58 305.88,-1382.62 305.88,-1378.67 305.88,-1378.67 305.88,-1370.75 305.88,-1370.75 305.88,-1366.79 309.83,-1362.83 313.79,-1362.83 313.79,-1362.83 497.71,-1362.83 497.71,-1362.83 501.67,-1362.83 505.62,-1366.79 505.62,-1370.75 505.62,-1370.75 505.62,-1378.67 505.62,-1378.67 505.62,-1382.62 501.67,-1386.58 497.71,-1386.58"/>
<text text-anchor="middle" x="405.75" y="-1369.28" font-family="Arial" font-size="14.00" fill="#ff6c60">src/core/compiler/compiler.mjs</text>
</g>
<!-- src/core/capi/capi_check_stack.mjs&#45;&gt;src/core/compiler/compiler.mjs -->
<g id="edge1" class="edge">
<title>src/core/capi/capi_check_stack.mjs&#45;&gt;src/core/compiler/compiler.mjs</title>
<path fill="none" stroke="#757575" d="M188.73,-1438.35C201.94,-1435.76 215.55,-1432.85 228.25,-1429.71 273.28,-1418.55 323.73,-1402.46 359.12,-1390.56"/>
<polygon fill="#757575" stroke="#757575" points="359.82,-1394.02 368.17,-1387.5 357.57,-1387.39 359.82,-1394.02"/>
</g>
<!-- src/core/core.mjs -->
<g id="node4" class="node">
<title>src/core/core.mjs</title>
<path fill="none" stroke="#ff6c60" d="M730.46,-904.58C730.46,-904.58 626.79,-904.58 626.79,-904.58 622.83,-904.58 618.88,-900.62 618.88,-896.67 618.88,-896.67 618.88,-888.75 618.88,-888.75 618.88,-884.79 622.83,-880.83 626.79,-880.83 626.79,-880.83 730.46,-880.83 730.46,-880.83 734.42,-880.83 738.38,-884.79 738.38,-888.75 738.38,-888.75 738.38,-896.67 738.38,-896.67 738.38,-900.62 734.42,-904.58 730.46,-904.58"/>
<text text-anchor="middle" x="678.62" y="-887.28" font-family="Arial" font-size="14.00" fill="#ff6c60">src/core/core.mjs</text>
</g>
<!-- src/core/capi/capi_check_stack.mjs&#45;&gt;src/core/core.mjs -->
<g id="edge2" class="edge">
<title>src/core/capi/capi_check_stack.mjs&#45;&gt;src/core/core.mjs</title>
<path fill="none" stroke="#757575" d="M217.91,-1438.55C221.65,-1436.01 225.12,-1433.07 228.25,-1429.71 278.14,-1375.97 222.48,-1161.98 264.25,-1101.71 345.54,-984.4 512.79,-929.3 607.75,-906.53"/>
<polygon fill="#757575" stroke="#757575" points="608.26,-910 617.2,-904.32 606.67,-903.18 608.26,-910"/>
</g>
<!-- src/core/executor/executor.mjs -->
<g id="node5" class="node">
<title>src/core/executor/executor.mjs</title>
<path fill="none" stroke="#ff6c60" d="M1572.71,-1213.58C1572.71,-1213.58 1388.79,-1213.58 1388.79,-1213.58 1384.83,-1213.58 1380.88,-1209.62 1380.88,-1205.67 1380.88,-1205.67 1380.88,-1197.75 1380.88,-1197.75 1380.88,-1193.79 1384.83,-1189.83 1388.79,-1189.83 1388.79,-1189.83 1572.71,-1189.83 1572.71,-1189.83 1576.67,-1189.83 1580.62,-1193.79 1580.62,-1197.75 1580.62,-1197.75 1580.62,-1205.67 1580.62,-1205.67 1580.62,-1209.62 1576.67,-1213.58 1572.71,-1213.58"/>
<text text-anchor="middle" x="1480.75" y="-1196.28" font-family="Arial" font-size="14.00" fill="#ff6c60">src/core/executor/executor.mjs</text>
</g>
<!-- src/core/capi/capi_check_stack.mjs&#45;&gt;src/core/executor/executor.mjs -->
<g id="edge3" class="edge">
<title>src/core/capi/capi_check_stack.mjs&#45;&gt;src/core/executor/executor.mjs</title>
<path fill="none" stroke="#757575" d="M214.69,-1463.05C391.98,-1481.89 772.71,-1508.13 1081,-1431.71 1112.18,-1423.98 1311.74,-1318.29 1339.25,-1301.71 1381.68,-1276.13 1427.97,-1241.83 1455.39,-1220.78"/>
<polygon fill="#757575" stroke="#757575" points="1457.3,-1223.73 1463.07,-1214.84 1453.02,-1218.19 1457.3,-1223.73"/>
</g>
<!-- src/core/sentinel/sentinel.mjs -->
<g id="node6" class="node">
<title>src/core/sentinel/sentinel.mjs</title>
<path fill="none" stroke="#ff6c60" d="M2439.33,-1330.58C2439.33,-1330.58 2265.17,-1330.58 2265.17,-1330.58 2261.21,-1330.58 2257.25,-1326.62 2257.25,-1322.67 2257.25,-1322.67 2257.25,-1314.75 2257.25,-1314.75 2257.25,-1310.79 2261.21,-1306.83 2265.17,-1306.83 2265.17,-1306.83 2439.33,-1306.83 2439.33,-1306.83 2443.29,-1306.83 2447.25,-1310.79 2447.25,-1314.75 2447.25,-1314.75 2447.25,-1322.67 2447.25,-1322.67 2447.25,-1326.62 2443.29,-1330.58 2439.33,-1330.58"/>
<text text-anchor="middle" x="2352.25" y="-1313.28" font-family="Arial" font-size="14.00" fill="#ff6c60">src/core/sentinel/sentinel.mjs</text>
</g>
<!-- src/core/capi/capi_check_stack.mjs&#45;&gt;src/core/sentinel/sentinel.mjs -->
<g id="edge4" class="edge">
<title>src/core/capi/capi_check_stack.mjs&#45;&gt;src/core/sentinel/sentinel.mjs</title>
<path fill="none" stroke="#757575" d="M121.29,-1462.79C138.8,-1495.8 192.23,-1588.1 264.25,-1633.71 424.13,-1734.94 488.39,-1735.71 677.62,-1735.71 677.62,-1735.71 677.62,-1735.71 1229.12,-1735.71 1529.72,-1735.71 1606.47,-1685.98 1886.5,-1576.71 2062.67,-1507.96 2254.6,-1383.96 2324.17,-1337.21"/>
<polygon fill="#757575" stroke="#757575" points="2325.95,-1340.23 2332.27,-1331.74 2322.03,-1334.43 2325.95,-1340.23"/>
</g>
<!-- src/core/utils/creator_ga.mjs -->
<g id="node7" class="node">
<title>src/core/utils/creator_ga.mjs</title>
<path fill="none" stroke="#cfffac" d="M1839.21,-1412.58C1839.21,-1412.58 1669.54,-1412.58 1669.54,-1412.58 1665.58,-1412.58 1661.62,-1408.62 1661.62,-1404.67 1661.62,-1404.67 1661.62,-1396.75 1661.62,-1396.75 1661.62,-1392.79 1665.58,-1388.83 1669.54,-1388.83 1669.54,-1388.83 1839.21,-1388.83 1839.21,-1388.83 1843.17,-1388.83 1847.12,-1392.79 1847.12,-1396.75 1847.12,-1396.75 1847.12,-1404.67 1847.12,-1404.67 1847.12,-1408.62 1843.17,-1412.58 1839.21,-1412.58"/>
<text text-anchor="middle" x="1754.38" y="-1395.28" font-family="Arial" font-size="14.00" fill="#cfffac">src/core/utils/creator_ga.mjs</text>
</g>
<!-- src/core/capi/capi_check_stack.mjs&#45;&gt;src/core/utils/creator_ga.mjs -->
<g id="edge5" class="edge">
<title>src/core/capi/capi_check_stack.mjs&#45;&gt;src/core/utils/creator_ga.mjs</title>
<path fill="none" stroke="#757575" d="M130.15,-1462.96C192.85,-1512.8 441.38,-1697.71 677.62,-1697.71 677.62,-1697.71 677.62,-1697.71 946.5,-1697.71 1028.32,-1697.71 1561.9,-1479.83 1713.35,-1417.3"/>
<polygon fill="#757575" stroke="#757575" points="1714.69,-1420.54 1722.59,-1413.48 1712.01,-1414.07 1714.69,-1420.54"/>
</g>
<!-- src/core/compiler/compiler.mjs&#45;&gt;src/core/core.mjs -->
<g id="edge38" class="edge">
<title>src/core/compiler/compiler.mjs&#45;&gt;src/core/core.mjs</title>
<path fill="none" stroke="#757575" d="M412.41,-1362.52C445.38,-1298.08 613,-999.43 663.32,-914.92"/>
<polygon fill="#757575" stroke="#757575" points="666.31,-916.75 668.46,-906.38 660.31,-913.14 666.31,-916.75"/>
</g>
<!-- src/core/compiler/compiler.mjs&#45;&gt;src/core/utils/creator_ga.mjs -->
<g id="edge43" class="edge">
<title>src/core/compiler/compiler.mjs&#45;&gt;src/core/utils/creator_ga.mjs</title>
<path fill="none" stroke="#757575" d="M433.85,-1387.04C467.89,-1401.8 528.49,-1425.65 583.25,-1434.71 666.89,-1448.54 689.22,-1435.12 774,-1434.71 910.45,-1434.04 944.6,-1435.52 1081,-1431.71 1282.61,-1426.08 1517.99,-1413.95 1649.97,-1406.64"/>
<polygon fill="#757575" stroke="#757575" points="1649.94,-1410.15 1659.73,-1406.1 1649.55,-1403.16 1649.94,-1410.15"/>
</g>
<!-- src/core/utils/creator_logger.mjs -->
<g id="node11" class="node">
<title>src/core/utils/creator_logger.mjs</title>
<path fill="none" stroke="#cfffac" d="M2737.33,-1412.58C2737.33,-1412.58 2545.92,-1412.58 2545.92,-1412.58 2541.96,-1412.58 2538,-1408.62 2538,-1404.67 2538,-1404.67 2538,-1396.75 2538,-1396.75 2538,-1392.79 2541.96,-1388.83 2545.92,-1388.83 2545.92,-1388.83 2737.33,-1388.83 2737.33,-1388.83 2741.29,-1388.83 2745.25,-1392.79 2745.25,-1396.75 2745.25,-1396.75 2745.25,-1404.67 2745.25,-1404.67 2745.25,-1408.62 2741.29,-1412.58 2737.33,-1412.58"/>
<text text-anchor="middle" x="2641.62" y="-1395.28" font-family="Arial" font-size="14.00" fill="#cfffac">src/core/utils/creator_logger.mjs</text>
</g>
<!-- src/core/compiler/compiler.mjs&#45;&gt;src/core/utils/creator_logger.mjs -->
<g id="edge44" class="edge">
<title>src/core/compiler/compiler.mjs&#45;&gt;src/core/utils/creator_logger.mjs</title>
<path fill="none" stroke="#757575" d="M415.29,-1386.9C444.21,-1427.83 539.09,-1559.28 583.25,-1585.71 723.88,-1669.87 780.61,-1659.71 944.5,-1659.71 944.5,-1659.71 944.5,-1659.71 1755.38,-1659.71 2090.89,-1659.71 2182.48,-1624.58 2492.25,-1495.71 2539.49,-1476.05 2588.35,-1441.52 2616.54,-1419.95"/>
<polygon fill="#757575" stroke="#757575" points="2618.66,-1422.73 2624.41,-1413.83 2614.37,-1417.2 2618.66,-1422.73"/>
</g>
<!-- src/core/utils/utils.mjs -->
<g id="node12" class="node">
<title>src/core/utils/utils.mjs</title>
<path fill="none" stroke="#cfffac" d="M2928.08,-501.58C2928.08,-501.58 2798.92,-501.58 2798.92,-501.58 2794.96,-501.58 2791,-497.62 2791,-493.67 2791,-493.67 2791,-485.75 2791,-485.75 2791,-481.79 2794.96,-477.83 2798.92,-477.83 2798.92,-477.83 2928.08,-477.83 2928.08,-477.83 2932.04,-477.83 2936,-481.79 2936,-485.75 2936,-485.75 2936,-493.67 2936,-493.67 2936,-497.62 2932.04,-501.58 2928.08,-501.58"/>
<text text-anchor="middle" x="2863.5" y="-484.28" font-family="Arial" font-size="14.00" fill="#cfffac">src/core/utils/utils.mjs</text>
</g>
<!-- src/core/compiler/compiler.mjs&#45;&gt;src/core/utils/utils.mjs -->
<g id="edge45" class="edge">
<title>src/core/compiler/compiler.mjs&#45;&gt;src/core/utils/utils.mjs</title>
<path fill="none" stroke="#757575" d="M411.81,-1386.97C429.33,-1427.96 491.37,-1561.79 583.25,-1634.71 718,-1741.65 772.47,-1773.71 944.5,-1773.71 944.5,-1773.71 944.5,-1773.71 2353.25,-1773.71 2570.39,-1773.71 2644.11,-1682.4 2755,-1495.71 2858.19,-1321.98 2862.73,-647.94 2862.59,-513.22"/>
<polygon fill="#757575" stroke="#757575" points="2866.09,-513.41 2862.57,-503.41 2859.09,-513.42 2866.09,-513.41"/>
</g>
<!-- src/core/memory/memoryManager.mjs -->
<g id="node15" class="node">
<title>src/core/memory/memoryManager.mjs</title>
<path fill="none" stroke="#ff6c60" d="M2166.83,-530.58C2166.83,-530.58 1931.92,-530.58 1931.92,-530.58 1927.96,-530.58 1924,-526.62 1924,-522.67 1924,-522.67 1924,-514.75 1924,-514.75 1924,-510.79 1927.96,-506.83 1931.92,-506.83 1931.92,-506.83 2166.83,-506.83 2166.83,-506.83 2170.79,-506.83 2174.75,-510.79 2174.75,-514.75 2174.75,-514.75 2174.75,-522.67 2174.75,-522.67 2174.75,-526.62 2170.79,-530.58 2166.83,-530.58"/>
<text text-anchor="middle" x="2049.38" y="-513.28" font-family="Arial" font-size="14.00" fill="#ff6c60">src/core/memory/memoryManager.mjs</text>
</g>
<!-- src/core/compiler/compiler.mjs&#45;&gt;src/core/memory/memoryManager.mjs -->
<g id="edge40" class="edge">
<title>src/core/compiler/compiler.mjs&#45;&gt;src/core/memory/memoryManager.mjs</title>
<path fill="none" stroke="#757575" d="M407.41,-1362.36C413.46,-1269.86 466.92,-687.22 810,-482.71 1221.73,-237.27 1855.32,-439.71 2012.27,-502.1"/>
<polygon fill="#757575" stroke="#757575" points="2010.75,-505.26 2021.34,-505.78 2013.38,-498.78 2010.75,-505.26"/>
</g>
<!-- src/core/memory/memoryOperations.mjs -->
<g id="node16" class="node">
<title>src/core/memory/memoryOperations.mjs</title>
<path fill="none" stroke="#ff6c60" d="M1878.58,-651.58C1878.58,-651.58 1630.17,-651.58 1630.17,-651.58 1626.21,-651.58 1622.25,-647.62 1622.25,-643.67 1622.25,-643.67 1622.25,-635.75 1622.25,-635.75 1622.25,-631.79 1626.21,-627.83 1630.17,-627.83 1630.17,-627.83 1878.58,-627.83 1878.58,-627.83 1882.54,-627.83 1886.5,-631.79 1886.5,-635.75 1886.5,-635.75 1886.5,-643.67 1886.5,-643.67 1886.5,-647.62 1882.54,-651.58 1878.58,-651.58"/>
<text text-anchor="middle" x="1754.38" y="-634.28" font-family="Arial" font-size="14.00" fill="#ff6c60">src/core/memory/memoryOperations.mjs</text>
</g>
<!-- src/core/compiler/compiler.mjs&#45;&gt;src/core/memory/memoryOperations.mjs -->
<g id="edge41" class="edge">
<title>src/core/compiler/compiler.mjs&#45;&gt;src/core/memory/memoryOperations.mjs</title>
<path fill="none" stroke="#757575" d="M408.26,-1362.4C416.95,-1302.22 464.42,-1038.19 583.25,-862.71 658.27,-751.93 686.16,-715.35 810,-664.71 950.78,-607.14 1383.36,-615.18 1610.58,-627.38"/>
<polygon fill="#757575" stroke="#757575" points="1610.22,-630.87 1620.4,-627.92 1610.61,-623.88 1610.22,-630.87"/>
</g>
<!-- src/core/compiler/deno/creator_compiler.js -->
<g id="node21" class="node">
<title>src/core/compiler/deno/creator_compiler.js</title>
<path fill="none" stroke="#cfffac" d="M1073.08,-1327.58C1073.08,-1327.58 817.92,-1327.58 817.92,-1327.58 813.96,-1327.58 810,-1323.62 810,-1319.67 810,-1319.67 810,-1311.75 810,-1311.75 810,-1307.79 813.96,-1303.83 817.92,-1303.83 817.92,-1303.83 1073.08,-1303.83 1073.08,-1303.83 1077.04,-1303.83 1081,-1307.79 1081,-1311.75 1081,-1311.75 1081,-1319.67 1081,-1319.67 1081,-1323.62 1077.04,-1327.58 1073.08,-1327.58"/>
<text text-anchor="middle" x="945.5" y="-1310.28" font-family="Arial" font-size="14.00" fill="#cfffac">src/core/compiler/deno/creator_compiler.js</text>
</g>
<!-- src/core/compiler/compiler.mjs&#45;&gt;src/core/compiler/deno/creator_compiler.js -->
<g id="edge37" class="edge">
<title>src/core/compiler/compiler.mjs&#45;&gt;src/core/compiler/deno/creator_compiler.js</title>
<path fill="none" stroke="#757575" d="M463.72,-1362.36C498.17,-1355.32 543.06,-1346.89 583.25,-1341.71 653.84,-1332.6 732.64,-1326.46 798.59,-1322.45"/>
<polygon fill="#757575" stroke="#757575" points="798.61,-1325.95 808.39,-1321.86 798.2,-1318.97 798.61,-1325.95"/>
</g>
<!-- src/core/memory/memoryCore.mjs -->
<g id="node22" class="node">
<title>src/core/memory/memoryCore.mjs</title>
<path fill="none" stroke="#ff6c60" d="M2747.08,-521.58C2747.08,-521.58 2536.17,-521.58 2536.17,-521.58 2532.21,-521.58 2528.25,-517.62 2528.25,-513.67 2528.25,-513.67 2528.25,-505.75 2528.25,-505.75 2528.25,-501.79 2532.21,-497.83 2536.17,-497.83 2536.17,-497.83 2747.08,-497.83 2747.08,-497.83 2751.04,-497.83 2755,-501.79 2755,-505.75 2755,-505.75 2755,-513.67 2755,-513.67 2755,-517.62 2751.04,-521.58 2747.08,-521.58"/>
<text text-anchor="middle" x="2641.62" y="-504.28" font-family="Arial" font-size="14.00" fill="#ff6c60">src/core/memory/memoryCore.mjs</text>
</g>
<!-- src/core/compiler/compiler.mjs&#45;&gt;src/core/memory/memoryCore.mjs -->
<g id="edge39" class="edge">
<title>src/core/compiler/compiler.mjs&#45;&gt;src/core/memory/memoryCore.mjs</title>
<path fill="none" stroke="#757575" d="M505.93,-1372.23C688.09,-1367.24 1059.4,-1354.91 1081,-1336.71 1135.42,-1290.86 1066.98,-1231.31 1117,-1180.71 1267.88,-1028.08 1425.87,-1209.33 1586.25,-1066.71 1620.61,-1036.15 1590.87,-1003.32 1622.25,-969.71 1659.48,-929.82 2418.13,-604.63 2601.15,-526.53"/>
<polygon fill="#757575" stroke="#757575" points="2602.42,-529.79 2610.24,-522.65 2599.67,-523.35 2602.42,-529.79"/>
</g>
<!-- src/core/utils/bigint.mjs -->
<g id="node23" class="node">
<title>src/core/utils/bigint.mjs</title>
<path fill="none" stroke="#ff6c60" d="M2710.33,-224.58C2710.33,-224.58 2572.92,-224.58 2572.92,-224.58 2568.96,-224.58 2565,-220.62 2565,-216.67 2565,-216.67 2565,-208.75 2565,-208.75 2565,-204.79 2568.96,-200.83 2572.92,-200.83 2572.92,-200.83 2710.33,-200.83 2710.33,-200.83 2714.29,-200.83 2718.25,-204.79 2718.25,-208.75 2718.25,-208.75 2718.25,-216.67 2718.25,-216.67 2718.25,-220.62 2714.29,-224.58 2710.33,-224.58"/>
<text text-anchor="middle" x="2641.62" y="-207.28" font-family="Arial" font-size="14.00" fill="#ff6c60">src/core/utils/bigint.mjs</text>
</g>
<!-- src/core/compiler/compiler.mjs&#45;&gt;src/core/utils/bigint.mjs -->
<g id="edge42" class="edge">
<title>src/core/compiler/compiler.mjs&#45;&gt;src/core/utils/bigint.mjs</title>
<path fill="none" stroke="#757575" d="M408.86,-1362.53C432.2,-1229.96 646.67,-59.71 944.5,-59.71 944.5,-59.71 944.5,-59.71 2050.38,-59.71 2265.52,-59.71 2511.08,-156.14 2603.16,-195.89"/>
<polygon fill="#757575" stroke="#757575" points="2601.66,-199.05 2612.23,-199.84 2604.46,-192.64 2601.66,-199.05"/>
</g>
<!-- src/core/core.mjs&#45;&gt;src/core/compiler/compiler.mjs -->
<g id="edge47" class="edge">
<title>src/core/core.mjs&#45;&gt;src/core/compiler/compiler.mjs</title>
<path fill="none" stroke="#757575" d="M671.99,-904.86C638.98,-969.37 470.63,-1269.3 420.72,-1353.06"/>
<polygon fill="#757575" stroke="#757575" points="417.8,-1351.12 415.64,-1361.49 423.8,-1354.73 417.8,-1351.12"/>
</g>
<!-- src/core/core.mjs&#45;&gt;src/core/executor/executor.mjs -->
<g id="edge49" class="edge">
<title>src/core/core.mjs&#45;&gt;src/core/executor/executor.mjs</title>
<path fill="none" stroke="#757575" d="M695.36,-905C718.1,-927.17 762.62,-972.25 810,-996.71 920.16,-1053.57 961.28,-1030.53 1081,-1062.71 1196.54,-1093.76 1232.78,-1084.14 1339.25,-1138.71 1357.29,-1147.95 1357.02,-1157.85 1375.25,-1166.71 1394,-1175.82 1416.24,-1181.93 1435.37,-1186.66"/>
<polygon fill="#757575" stroke="#757575" points="1434.51,-1190.05 1445.05,-1189.02 1436.16,-1183.25 1434.51,-1190.05"/>
</g>
<!-- src/core/core.mjs&#45;&gt;src/core/utils/creator_logger.mjs -->
<g id="edge52" class="edge">
<title>src/core/core.mjs&#45;&gt;src/core/utils/creator_logger.mjs</title>
<path fill="none" stroke="#757575" d="M679.9,-905.06C681.8,-956.85 696.46,-1158.02 810,-1251.71 904.06,-1329.32 983.02,-1222.11 1081,-1294.71 1110.39,-1316.48 1089.45,-1344.65 1117,-1368.71 1208,-1448.2 1258.32,-1423.23 1375.25,-1453.71 1855.68,-1578.92 2023.28,-1603.67 2492.25,-1440.71 2510.18,-1434.48 2510.48,-1424.38 2528.25,-1417.71 2529.4,-1417.27 2530.57,-1416.85 2531.74,-1416.44"/>
<polygon fill="#757575" stroke="#757575" points="2532.62,-1419.83 2541.09,-1413.47 2530.5,-1413.16 2532.62,-1419.83"/>
</g>
<!-- src/core/core.mjs&#45;&gt;src/core/utils/utils.mjs -->
<g id="edge53" class="edge">
<title>src/core/core.mjs&#45;&gt;src/core/utils/utils.mjs</title>
<path fill="none" stroke="#757575" d="M679.96,-880.51C682.56,-796.41 702.33,-303.18 810,-212.71 975.46,-73.67 2578.14,-67.49 2755,-191.71 2847.04,-256.35 2860.63,-407.87 2862.37,-466.22"/>
<polygon fill="#757575" stroke="#757575" points="2858.87,-466.05 2862.56,-475.98 2865.87,-465.91 2858.87,-466.05"/>
</g>
<!-- src/core/capi/initCAPI.mjs -->
<g id="node20" class="node">
<title>src/core/capi/initCAPI.mjs</title>
<path fill="none" stroke="#ff6c60" d="M1022.83,-963.58C1022.83,-963.58 868.17,-963.58 868.17,-963.58 864.21,-963.58 860.25,-959.62 860.25,-955.67 860.25,-955.67 860.25,-947.75 860.25,-947.75 860.25,-943.79 864.21,-939.83 868.17,-939.83 868.17,-939.83 1022.83,-939.83 1022.83,-939.83 1026.79,-939.83 1030.75,-943.79 1030.75,-947.75 1030.75,-947.75 1030.75,-955.67 1030.75,-955.67 1030.75,-959.62 1026.79,-963.58 1022.83,-963.58"/>
<text text-anchor="middle" x="945.5" y="-946.28" font-family="Arial" font-size="14.00" fill="#ff6c60">src/core/capi/initCAPI.mjs</text>
</g>
<!-- src/core/core.mjs&#45;&gt;src/core/capi/initCAPI.mjs -->
<g id="edge46" class="edge">
<title>src/core/core.mjs&#45;&gt;src/core/capi/initCAPI.mjs</title>
<path fill="none" stroke="#757575" d="M725.63,-905.03C750.52,-911.53 781.86,-919.43 810,-925.71 827.88,-929.69 847.17,-933.64 865.41,-937.2"/>
<polygon fill="#757575" stroke="#757575" points="864.64,-940.61 875.12,-939.08 865.97,-933.74 864.64,-940.61"/>
</g>
<!-- src/core/core.mjs&#45;&gt;src/core/compiler/deno/creator_compiler.js -->
<g id="edge48" class="edge">
<title>src/core/core.mjs&#45;&gt;src/core/compiler/deno/creator_compiler.js</title>
<path fill="none" stroke="#757575" d="M679.51,-904.73C679.7,-958.9 688.07,-1182.29 810,-1289.71 813.42,-1292.72 817.07,-1295.42 820.92,-1297.85"/>
<polygon fill="#757575" stroke="#757575" points="819.05,-1300.82 829.49,-1302.6 822.44,-1294.7 819.05,-1300.82"/>
</g>
<!-- src/core/core.mjs&#45;&gt;src/core/memory/memoryCore.mjs -->
<g id="edge50" class="edge">
<title>src/core/core.mjs&#45;&gt;src/core/memory/memoryCore.mjs</title>
<path fill="none" stroke="#757575" d="M680.49,-880.56C686.49,-806.62 724.42,-421.75 810,-350.71 902.07,-274.28 1767.23,-311.1 1886.5,-320.71 2016.47,-331.18 2048.26,-341.8 2176.25,-366.71 2317.74,-394.25 2354.91,-395.94 2492.25,-439.71 2537.15,-454.02 2587.52,-476.06 2616.51,-491.96"/>
<polygon fill="#757575" stroke="#757575" points="2614.45,-494.82 2624.87,-496.76 2617.94,-488.75 2614.45,-494.82"/>
</g>
<!-- src/core/core.mjs&#45;&gt;src/core/utils/bigint.mjs -->
<g id="edge51" class="edge">
<title>src/core/core.mjs&#45;&gt;src/core/utils/bigint.mjs</title>
<path fill="none" stroke="#757575" d="M680.03,-880.59C683.24,-798.07 707.44,-322.99 810,-234.71 840.65,-208.33 725.59,-210.39 2212.25,-190.71 2336.68,-189.06 2367.92,-185.27 2492.25,-190.71 2523.58,-192.08 2558.53,-195.07 2586.64,-198.79"/>
<polygon fill="#757575" stroke="#757575" points="2585.95,-202.23 2596.34,-200.16 2586.92,-195.3 2585.95,-202.23"/>
</g>
<!-- src/core/executor/executor.mjs&#45;&gt;src/core/compiler/compiler.mjs -->
<g id="edge56" class="edge">
<title>src/core/executor/executor.mjs&#45;&gt;src/core/compiler/compiler.mjs</title>
<path fill="none" stroke="#757575" d="M1411.74,-1214.01C1333.27,-1231.11 1203.92,-1268.6 1117,-1341.71 1093.2,-1361.73 1107.78,-1385.9 1081,-1401.71 985.71,-1457.93 693.27,-1424.42 583.25,-1412.71 542.19,-1408.34 496.65,-1398.4 462.11,-1389.79"/>
<polygon fill="#757575" stroke="#757575" points="463.32,-1386.48 452.77,-1387.42 461.6,-1393.27 463.32,-1386.48"/>
</g>
<!-- src/core/executor/executor.mjs&#45;&gt;src/core/core.mjs -->
<g id="edge57" class="edge">
<title>src/core/executor/executor.mjs&#45;&gt;src/core/core.mjs</title>
<path fill="none" stroke="#757575" d="M1385.9,-1189.43C1382.26,-1187.96 1378.7,-1186.38 1375.25,-1184.71 1357.02,-1175.85 1357.29,-1165.95 1339.25,-1156.71 1232.78,-1102.14 1196.54,-1111.76 1081,-1080.71 961.28,-1048.53 920.16,-1071.57 810,-1014.71 760.95,-989.39 714.96,-941.97 693.04,-914.03"/>
<polygon fill="#757575" stroke="#757575" points="696.02,-912.16 687.23,-906.24 690.41,-916.35 696.02,-912.16"/>
</g>
<!-- src/core/executor/executor.mjs&#45;&gt;src/core/sentinel/sentinel.mjs -->
<g id="edge65" class="edge">
<title>src/core/executor/executor.mjs&#45;&gt;src/core/sentinel/sentinel.mjs</title>
<path fill="none" stroke="#757575" d="M1573.57,-1214.06C1736.98,-1236.05 2077.16,-1281.83 2248.27,-1304.85"/>
<polygon fill="#757575" stroke="#757575" points="2247.66,-1308.3 2258.04,-1306.16 2248.59,-1301.36 2247.66,-1308.3"/>
</g>
<!-- src/core/executor/executor.mjs&#45;&gt;src/core/utils/creator_ga.mjs -->
<g id="edge67" class="edge">
<title>src/core/executor/executor.mjs&#45;&gt;src/core/utils/creator_ga.mjs</title>
<path fill="none" stroke="#757575" d="M1487.27,-1213.76C1503.01,-1246.66 1551.62,-1338.26 1622.25,-1379.71 1631.01,-1384.85 1640.64,-1388.84 1650.58,-1391.93"/>
<polygon fill="#757575" stroke="#757575" points="1649.43,-1395.25 1660,-1394.54 1651.3,-1388.5 1649.43,-1395.25"/>
</g>
<!-- src/core/memory/stackTracker.mjs -->
<g id="node9" class="node">
<title>src/core/memory/stackTracker.mjs</title>
<path fill="none" stroke="#ff6c60" d="M1858.33,-1290.58C1858.33,-1290.58 1650.42,-1290.58 1650.42,-1290.58 1646.46,-1290.58 1642.5,-1286.62 1642.5,-1282.67 1642.5,-1282.67 1642.5,-1274.75 1642.5,-1274.75 1642.5,-1270.79 1646.46,-1266.83 1650.42,-1266.83 1650.42,-1266.83 1858.33,-1266.83 1858.33,-1266.83 1862.29,-1266.83 1866.25,-1270.79 1866.25,-1274.75 1866.25,-1274.75 1866.25,-1282.67 1866.25,-1282.67 1866.25,-1286.62 1862.29,-1290.58 1858.33,-1290.58"/>
<text text-anchor="middle" x="1754.38" y="-1273.28" font-family="Arial" font-size="14.00" fill="#ff6c60">src/core/memory/stackTracker.mjs</text>
</g>
<!-- src/core/executor/executor.mjs&#45;&gt;src/core/memory/stackTracker.mjs -->
<g id="edge62" class="edge">
<title>src/core/executor/executor.mjs&#45;&gt;src/core/memory/stackTracker.mjs</title>
<path fill="none" stroke="#757575" d="M1546.82,-1214.01C1560.17,-1217.6 1573.9,-1222.11 1586.25,-1227.71 1603.99,-1235.75 1604.32,-1245.1 1622.25,-1252.71 1632.34,-1256.99 1643.18,-1260.58 1654.14,-1263.58"/>
<polygon fill="#757575" stroke="#757575" points="1653.09,-1266.93 1663.65,-1266.02 1654.83,-1260.15 1653.09,-1266.93"/>
</g>
<!-- src/core/executor/executor.mjs&#45;&gt;src/core/utils/creator_logger.mjs -->
<g id="edge68" class="edge">
<title>src/core/executor/executor.mjs&#45;&gt;src/core/utils/creator_logger.mjs</title>
<path fill="none" stroke="#757575" d="M1580.85,-1193.75C1766.64,-1182.54 2176.99,-1175.47 2492.25,-1297.71 2542.42,-1317.16 2592,-1356.81 2619.24,-1380.85"/>
<polygon fill="#757575" stroke="#757575" points="2616.68,-1383.26 2626.46,-1387.33 2621.36,-1378.05 2616.68,-1383.26"/>
</g>
<!-- src/core/executor/executor.mjs&#45;&gt;src/core/utils/utils.mjs -->
<g id="edge69" class="edge">
<title>src/core/executor/executor.mjs&#45;&gt;src/core/utils/utils.mjs</title>
<path fill="none" stroke="#757575" d="M1574.57,-1189.36C1760.51,-1164.56 2162.14,-1110.65 2176.25,-1105.71 2458.67,-1006.82 2560.99,-989.52 2755,-761.71 2820.25,-685.09 2848.9,-564.06 2858.51,-513.32"/>
<polygon fill="#757575" stroke="#757575" points="2861.96,-513.96 2860.29,-503.5 2855.07,-512.72 2861.96,-513.96"/>
</g>
<!-- src/core/executor/executor.mjs&#45;&gt;src/core/memory/memoryManager.mjs -->
<g id="edge60" class="edge">
<title>src/core/executor/executor.mjs&#45;&gt;src/core/memory/memoryManager.mjs</title>
<path fill="none" stroke="#757575" d="M1565.81,-1189.44C1573.31,-1185.89 1580.3,-1181.39 1586.25,-1175.71 1626.81,-1136.94 1580.12,-1091.77 1622.25,-1054.71 1711.59,-976.12 1805.93,-1099.27 1886.5,-1011.71 1955.78,-936.42 1857.17,-631.44 1922.5,-552.71 1928.09,-545.97 1934.86,-540.49 1942.34,-536.05"/>
<polygon fill="#757575" stroke="#757575" points="1943.54,-539.37 1950.79,-531.65 1940.31,-533.16 1943.54,-539.37"/>
</g>
<!-- src/core/executor/executor.mjs&#45;&gt;src/core/memory/memoryOperations.mjs -->
<g id="edge61" class="edge">
<title>src/core/executor/executor.mjs&#45;&gt;src/core/memory/memoryOperations.mjs</title>
<path fill="none" stroke="#757575" d="M1493.22,-1189.59C1514.12,-1166.99 1558.76,-1116.19 1586.25,-1066.71 1608.58,-1026.51 1605.76,-1012.63 1622.25,-969.71 1666.75,-853.88 1722.33,-716.19 1744.06,-662.62"/>
<polygon fill="#757575" stroke="#757575" points="1747.3,-663.94 1747.82,-653.36 1740.82,-661.31 1747.3,-663.94"/>
</g>
<!-- src/core/register/registerLookup.mjs -->
<g id="node17" class="node">
<title>src/core/register/registerLookup.mjs</title>
<path fill="none" stroke="#ff6c60" d="M1862.08,-609.58C1862.08,-609.58 1646.67,-609.58 1646.67,-609.58 1642.71,-609.58 1638.75,-605.62 1638.75,-601.67 1638.75,-601.67 1638.75,-593.75 1638.75,-593.75 1638.75,-589.79 1642.71,-585.83 1646.67,-585.83 1646.67,-585.83 1862.08,-585.83 1862.08,-585.83 1866.04,-585.83 1870,-589.79 1870,-593.75 1870,-593.75 1870,-601.67 1870,-601.67 1870,-605.62 1866.04,-609.58 1862.08,-609.58"/>
<text text-anchor="middle" x="1754.38" y="-592.28" font-family="Arial" font-size="14.00" fill="#ff6c60">src/core/register/registerLookup.mjs</text>
</g>
<!-- src/core/executor/executor.mjs&#45;&gt;src/core/register/registerLookup.mjs -->
<g id="edge63" class="edge">
<title>src/core/executor/executor.mjs&#45;&gt;src/core/register/registerLookup.mjs</title>
<path fill="none" stroke="#757575" d="M1495.32,-1189.54C1518.7,-1167.63 1566.02,-1118.95 1586.25,-1066.71 1622.32,-973.57 1554.46,-692.05 1622.25,-618.71 1624.41,-616.37 1626.72,-614.22 1629.16,-612.25"/>
<polygon fill="#757575" stroke="#757575" points="1630.97,-615.25 1637.25,-606.72 1627.02,-609.47 1630.97,-615.25"/>
</g>
<!-- src/core/register/registerOperations.mjs -->
<g id="node19" class="node">
<title>src/core/register/registerOperations.mjs</title>
<path fill="none" stroke="#ff6c60" d="M2168.33,-1096.58C2168.33,-1096.58 1930.42,-1096.58 1930.42,-1096.58 1926.46,-1096.58 1922.5,-1092.62 1922.5,-1088.67 1922.5,-1088.67 1922.5,-1080.75 1922.5,-1080.75 1922.5,-1076.79 1926.46,-1072.83 1930.42,-1072.83 1930.42,-1072.83 2168.33,-1072.83 2168.33,-1072.83 2172.29,-1072.83 2176.25,-1076.79 2176.25,-1080.75 2176.25,-1080.75 2176.25,-1088.67 2176.25,-1088.67 2176.25,-1092.62 2172.29,-1096.58 2168.33,-1096.58"/>
<text text-anchor="middle" x="2049.38" y="-1079.28" font-family="Arial" font-size="14.00" fill="#ff6c60">src/core/register/registerOperations.mjs</text>
</g>
<!-- src/core/executor/executor.mjs&#45;&gt;src/core/register/registerOperations.mjs -->
<g id="edge64" class="edge">
<title>src/core/executor/executor.mjs&#45;&gt;src/core/register/registerOperations.mjs</title>
<path fill="none" stroke="#757575" d="M1514.44,-1189.35C1535.64,-1184.18 1563.45,-1177.54 1586.25,-1166.71 1604.31,-1158.12 1603.8,-1147.43 1622.25,-1139.71 1713.89,-1101.36 1825.11,-1085.58 1910.95,-1080.52"/>
<polygon fill="#757575" stroke="#757575" points="1911.04,-1084.02 1920.84,-1079.99 1910.66,-1077.03 1911.04,-1084.02"/>
</g>
<!-- src/core/executor/executor.mjs&#45;&gt;src/core/utils/bigint.mjs -->
<g id="edge66" class="edge">
<title>src/core/executor/executor.mjs&#45;&gt;src/core/utils/bigint.mjs</title>
<path fill="none" stroke="#757575" d="M1501.18,-1189.58C1522.89,-1175.63 1558.63,-1151.44 1586.25,-1126.71 1604.07,-1110.75 1601.19,-1098.05 1622.25,-1086.71 1726.83,-1030.38 1788.53,-1113.87 1886.5,-1046.71 2100.57,-899.97 2091.08,-784.87 2176.25,-539.71 2211.5,-438.24 2138.34,-378.66 2212.25,-300.71 2299.69,-208.5 2455.9,-199.25 2553.59,-203.89"/>
<polygon fill="#757575" stroke="#757575" points="2553.22,-207.38 2563.4,-204.42 2553.6,-200.39 2553.22,-207.38"/>
</g>
<!-- src/core/executor/decoder.mjs -->
<g id="node24" class="node">
<title>src/core/executor/decoder.mjs</title>
<path fill="none" stroke="#ff6c60" d="M1844.83,-1370.58C1844.83,-1370.58 1663.92,-1370.58 1663.92,-1370.58 1659.96,-1370.58 1656,-1366.62 1656,-1362.67 1656,-1362.67 1656,-1354.75 1656,-1354.75 1656,-1350.79 1659.96,-1346.83 1663.92,-1346.83 1663.92,-1346.83 1844.83,-1346.83 1844.83,-1346.83 1848.79,-1346.83 1852.75,-1350.79 1852.75,-1354.75 1852.75,-1354.75 1852.75,-1362.67 1852.75,-1362.67 1852.75,-1366.62 1848.79,-1370.58 1844.83,-1370.58"/>
<text text-anchor="middle" x="1754.38" y="-1353.28" font-family="Arial" font-size="14.00" fill="#ff6c60">src/core/executor/decoder.mjs</text>
</g>
<!-- src/core/executor/executor.mjs&#45;&gt;src/core/executor/decoder.mjs -->
<g id="edge58" class="edge">
<title>src/core/executor/executor.mjs&#45;&gt;src/core/executor/decoder.mjs</title>
<path fill="none" stroke="#757575" d="M1497.13,-1213.88C1522.33,-1233.47 1574.39,-1272.56 1622.25,-1299.71 1650.97,-1316 1685.02,-1331.21 1711.22,-1342.1"/>
<polygon fill="#757575" stroke="#757575" points="1709.59,-1345.21 1720.17,-1345.77 1712.25,-1338.74 1709.59,-1345.21"/>
</g>
<!-- src/core/executor/preload.mjs -->
<g id="node25" class="node">
<title>src/core/executor/preload.mjs</title>
<path fill="none" stroke="#ff6c60" d="M1843.33,-1492.58C1843.33,-1492.58 1665.42,-1492.58 1665.42,-1492.58 1661.46,-1492.58 1657.5,-1488.62 1657.5,-1484.67 1657.5,-1484.67 1657.5,-1476.75 1657.5,-1476.75 1657.5,-1472.79 1661.46,-1468.83 1665.42,-1468.83 1665.42,-1468.83 1843.33,-1468.83 1843.33,-1468.83 1847.29,-1468.83 1851.25,-1472.79 1851.25,-1476.75 1851.25,-1476.75 1851.25,-1484.67 1851.25,-1484.67 1851.25,-1488.62 1847.29,-1492.58 1843.33,-1492.58"/>
<text text-anchor="middle" x="1754.38" y="-1475.28" font-family="Arial" font-size="14.00" fill="#ff6c60">src/core/executor/preload.mjs</text>
</g>
<!-- src/core/executor/executor.mjs&#45;&gt;src/core/executor/preload.mjs -->
<g id="edge59" class="edge">
<title>src/core/executor/executor.mjs&#45;&gt;src/core/executor/preload.mjs</title>
<path fill="none" stroke="#757575" d="M1488.26,-1213.8C1510.65,-1255.09 1585.22,-1389.71 1622.25,-1421.71 1644.56,-1440.99 1674.2,-1455.04 1699.66,-1464.58"/>
<polygon fill="#757575" stroke="#757575" points="1698.26,-1467.79 1708.85,-1467.88 1700.62,-1461.21 1698.26,-1467.79"/>
</g>
<!-- src/core/sentinel/sentinel.mjs&#45;&gt;src/core/compiler/compiler.mjs -->
<g id="edge104" class="edge">
<title>src/core/sentinel/sentinel.mjs&#45;&gt;src/core/compiler/compiler.mjs</title>
<path fill="none" stroke="#757575" d="M2256.9,-1321.48C2162.75,-1328.86 2018.63,-1353.21 1922.5,-1430.71 1894.96,-1452.91 1914.64,-1480.27 1886.5,-1501.71 1650.24,-1681.68 1526.12,-1621.71 1229.12,-1621.71 944.5,-1621.71 944.5,-1621.71 944.5,-1621.71 779.25,-1621.71 729.07,-1611.45 583.25,-1533.71 515.39,-1497.53 452.74,-1429.7 423.72,-1395.52"/>
<polygon fill="#757575" stroke="#757575" points="426.52,-1393.41 417.42,-1387.99 421.15,-1397.9 426.52,-1393.41"/>
</g>
<!-- src/core/sentinel/sentinel.mjs&#45;&gt;src/core/core.mjs -->
<g id="edge105" class="edge">
<title>src/core/sentinel/sentinel.mjs&#45;&gt;src/core/core.mjs</title>
<path fill="none" stroke="#757575" d="M2256.86,-1317.05C2117.86,-1314.42 1849.96,-1308.67 1622.25,-1299.71 1512.41,-1295.39 1477.27,-1327.66 1375.25,-1286.71 1355.66,-1278.84 1358.45,-1264.49 1339.25,-1255.71 1248.44,-1214.16 1203.05,-1273.39 1117,-1222.71 1094.33,-1209.35 1103.73,-1188.97 1081,-1175.71 975.95,-1114.41 909.65,-1207.44 810,-1137.71 731.75,-1082.96 696.52,-966.12 684.6,-916.16"/>
<polygon fill="#757575" stroke="#757575" points="688.02,-915.43 682.39,-906.45 681.19,-916.98 688.02,-915.43"/>
</g>
<!-- src/core/sentinel/sentinel.mjs&#45;&gt;src/core/utils/creator_logger.mjs -->
<g id="edge106" class="edge">
<title>src/core/sentinel/sentinel.mjs&#45;&gt;src/core/utils/creator_logger.mjs</title>
<path fill="none" stroke="#757575" d="M2396.58,-1331.07C2447.34,-1345.56 2531.46,-1369.56 2586.47,-1385.26"/>
<polygon fill="#757575" stroke="#757575" points="2585.38,-1388.58 2595.95,-1387.96 2587.3,-1381.85 2585.38,-1388.58"/>
</g>
<!-- src/core/capi/capi_draw_stack.mjs -->
<g id="node8" class="node">
<title>src/core/capi/capi_draw_stack.mjs</title>
<path fill="none" stroke="#ff6c60" d="M1331.33,-1213.58C1331.33,-1213.58 1124.92,-1213.58 1124.92,-1213.58 1120.96,-1213.58 1117,-1209.62 1117,-1205.67 1117,-1205.67 1117,-1197.75 1117,-1197.75 1117,-1193.79 1120.96,-1189.83 1124.92,-1189.83 1124.92,-1189.83 1331.33,-1189.83 1331.33,-1189.83 1335.29,-1189.83 1339.25,-1193.79 1339.25,-1197.75 1339.25,-1197.75 1339.25,-1205.67 1339.25,-1205.67 1339.25,-1209.62 1335.29,-1213.58 1331.33,-1213.58"/>
<text text-anchor="middle" x="1228.12" y="-1196.28" font-family="Arial" font-size="14.00" fill="#ff6c60">src/core/capi/capi_draw_stack.mjs</text>
</g>
<!-- src/core/capi/capi_draw_stack.mjs&#45;&gt;src/core/compiler/compiler.mjs -->
<g id="edge6" class="edge">
<title>src/core/capi/capi_draw_stack.mjs&#45;&gt;src/core/compiler/compiler.mjs</title>
<path fill="none" stroke="#757575" d="M1211.01,-1213.85C1188.08,-1231.7 1145.66,-1266.9 1117,-1303.71 1096.47,-1330.07 1109.67,-1352.54 1081,-1369.71 989.02,-1424.77 683.49,-1403.6 517.09,-1387.1"/>
<polygon fill="#757575" stroke="#757575" points="517.65,-1383.63 507.35,-1386.12 516.95,-1390.6 517.65,-1383.63"/>
</g>
<!-- src/core/capi/capi_draw_stack.mjs&#45;&gt;src/core/core.mjs -->
<g id="edge7" class="edge">
<title>src/core/capi/capi_draw_stack.mjs&#45;&gt;src/core/core.mjs</title>
<path fill="none" stroke="#757575" d="M1155.09,-1189.41C1142.07,-1185.88 1128.87,-1181.39 1117,-1175.71 1098.72,-1166.96 1099.52,-1155.94 1081,-1147.71 969.22,-1098.03 911.5,-1167.97 810,-1099.71 741.88,-1053.9 702.31,-959.27 687,-915.65"/>
<polygon fill="#757575" stroke="#757575" points="690.41,-914.79 683.89,-906.45 683.78,-917.04 690.41,-914.79"/>
</g>
<!-- src/core/capi/capi_draw_stack.mjs&#45;&gt;src/core/executor/executor.mjs -->
<g id="edge8" class="edge">
<title>src/core/capi/capi_draw_stack.mjs&#45;&gt;src/core/executor/executor.mjs</title>
<path fill="none" stroke="#757575" d="M1339.42,-1201.71C1349.23,-1201.71 1359.18,-1201.71 1369,-1201.71"/>
<polygon fill="#757575" stroke="#757575" points="1368.94,-1205.21 1378.94,-1201.71 1368.94,-1198.21 1368.94,-1205.21"/>
</g>
<!-- src/core/capi/capi_draw_stack.mjs&#45;&gt;src/core/memory/stackTracker.mjs -->
<g id="edge9" class="edge">
<title>src/core/capi/capi_draw_stack.mjs&#45;&gt;src/core/memory/stackTracker.mjs</title>
<path fill="none" stroke="#757575" d="M1301.16,-1214C1314.18,-1217.54 1327.38,-1222.02 1339.25,-1227.71 1357.53,-1236.46 1356.29,-1248.55 1375.25,-1255.71 1456.77,-1286.48 1555.18,-1291.56 1631.17,-1289.3"/>
<polygon fill="#757575" stroke="#757575" points="1630.83,-1292.81 1640.71,-1288.97 1630.59,-1285.82 1630.83,-1292.81"/>
</g>
<!-- src/core/memory/stackTracker.mjs&#45;&gt;src/core/core.mjs -->
<g id="edge91" class="edge">
<title>src/core/memory/stackTracker.mjs&#45;&gt;src/core/core.mjs</title>
<path fill="none" stroke="#757575" d="M1664.73,-1266.36C1554.97,-1250.96 1381.59,-1226.21 1375.25,-1222.71 1353.73,-1210.82 1360.5,-1193.07 1339.25,-1180.71 1252.27,-1130.14 1205.21,-1186.1 1117,-1137.71 1096.6,-1126.52 1101.68,-1110.37 1081,-1099.71 972.89,-1043.99 915.15,-1122.83 810,-1061.71 749.9,-1026.77 707.87,-952.29 689.7,-914.98"/>
<polygon fill="#757575" stroke="#757575" points="692.92,-913.59 685.48,-906.04 686.59,-916.58 692.92,-913.59"/>
</g>
<!-- src/core/capi/capi_fp.mjs -->
<g id="node10" class="node">
<title>src/core/capi/capi_fp.mjs</title>
<path fill="none" stroke="#ff6c60" d="M1829.08,-1002.58C1829.08,-1002.58 1679.67,-1002.58 1679.67,-1002.58 1675.71,-1002.58 1671.75,-998.62 1671.75,-994.67 1671.75,-994.67 1671.75,-986.75 1671.75,-986.75 1671.75,-982.79 1675.71,-978.83 1679.67,-978.83 1679.67,-978.83 1829.08,-978.83 1829.08,-978.83 1833.04,-978.83 1837,-982.79 1837,-986.75 1837,-986.75 1837,-994.67 1837,-994.67 1837,-998.62 1833.04,-1002.58 1829.08,-1002.58"/>
<text text-anchor="middle" x="1754.38" y="-985.28" font-family="Arial" font-size="14.00" fill="#ff6c60">src/core/capi/capi_fp.mjs</text>
</g>
<!-- src/core/capi/capi_fp.mjs&#45;&gt;src/core/core.mjs -->
<g id="edge10" class="edge">
<title>src/core/capi/capi_fp.mjs&#45;&gt;src/core/core.mjs</title>
<path fill="none" stroke="#757575" d="M1671.53,-988.08C1653.87,-990.95 1636.31,-996.81 1622.25,-1007.71 1588.21,-1034.11 1621.92,-1073.55 1586.25,-1097.71 1508.6,-1150.28 1465.78,-1122.18 1375.25,-1097.71 1357.37,-1092.87 1356.32,-1083.89 1339.25,-1076.71 1229.53,-1030.55 1197.79,-1028.74 1081,-1005.71 961.96,-982.23 924.56,-1012.69 810,-972.71 769.71,-958.65 728.64,-930.72 703.64,-911.88"/>
<polygon fill="#757575" stroke="#757575" points="705.83,-909.15 695.77,-905.83 701.56,-914.7 705.83,-909.15"/>
</g>
<!-- src/core/capi/capi_fp.mjs&#45;&gt;src/core/utils/creator_logger.mjs -->
<g id="edge11" class="edge">
<title>src/core/capi/capi_fp.mjs&#45;&gt;src/core/utils/creator_logger.mjs</title>
<path fill="none" stroke="#757575" d="M1837.41,-980.81C1983.84,-967.65 2293.44,-960.81 2492.25,-1105.71 2586.78,-1174.6 2624.88,-1321.06 2636.45,-1377.69"/>
<polygon fill="#757575" stroke="#757575" points="2632.95,-1378 2638.29,-1387.15 2639.82,-1376.67 2632.95,-1378"/>
</g>
<!-- src/core/capi/capi_fp.mjs&#45;&gt;src/core/utils/utils.mjs -->
<g id="edge12" class="edge">
<title>src/core/capi/capi_fp.mjs&#45;&gt;src/core/utils/utils.mjs</title>
<path fill="none" stroke="#757575" d="M1837.49,-980.66C2017.37,-958.22 2434.82,-903.65 2492.25,-873.71 2666.47,-782.89 2806.21,-578.88 2848.97,-511.65"/>
<polygon fill="#757575" stroke="#757575" points="2851.82,-513.69 2854.18,-503.36 2845.9,-509.96 2851.82,-513.69"/>
</g>
<!-- src/core/capi/capi_memory.mjs -->
<g id="node13" class="node">
<title>src/core/capi/capi_memory.mjs</title>
<path fill="none" stroke="#ff6c60" d="M1321.96,-887.58C1321.96,-887.58 1134.29,-887.58 1134.29,-887.58 1130.33,-887.58 1126.38,-883.62 1126.38,-879.67 1126.38,-879.67 1126.38,-871.75 1126.38,-871.75 1126.38,-867.79 1130.33,-863.83 1134.29,-863.83 1134.29,-863.83 1321.96,-863.83 1321.96,-863.83 1325.92,-863.83 1329.88,-867.79 1329.88,-871.75 1329.88,-871.75 1329.88,-879.67 1329.88,-879.67 1329.88,-883.62 1325.92,-887.58 1321.96,-887.58"/>
<text text-anchor="middle" x="1228.12" y="-870.28" font-family="Arial" font-size="14.00" fill="#ff6c60">src/core/capi/capi_memory.mjs</text>
</g>
<!-- src/core/capi/capi_memory.mjs&#45;&gt;src/core/core.mjs -->
<g id="edge14" class="edge">
<title>src/core/capi/capi_memory.mjs&#45;&gt;src/core/core.mjs</title>
<path fill="none" stroke="#757575" d="M1126.1,-878.84C1016.84,-882.24 845.54,-887.56 750,-890.52"/>
<polygon fill="#757575" stroke="#757575" points="750.14,-887.02 740.25,-890.83 750.35,-894.01 750.14,-887.02"/>
</g>
<!-- src/core/capi/capi_memory.mjs&#45;&gt;src/core/executor/executor.mjs -->
<g id="edge15" class="edge">
<title>src/core/capi/capi_memory.mjs&#45;&gt;src/core/executor/executor.mjs</title>
<path fill="none" stroke="#757575" d="M1238.33,-887.79C1261.36,-918 1323.31,-999.21 1375.25,-1066.71 1406.32,-1107.08 1442.78,-1154.1 1463.38,-1180.64"/>
<polygon fill="#757575" stroke="#757575" points="1460.39,-1182.49 1469.29,-1188.24 1465.92,-1178.2 1460.39,-1182.49"/>
</g>
<!-- src/core/capi/capi_memory.mjs&#45;&gt;src/core/sentinel/sentinel.mjs -->
<g id="edge19" class="edge">
<title>src/core/capi/capi_memory.mjs&#45;&gt;src/core/sentinel/sentinel.mjs</title>
<path fill="none" stroke="#757575" d="M1266.25,-888.02C1295.54,-897.26 1337.59,-909.53 1375.25,-916.71 1487.45,-938.1 1799.71,-895.46 1886.5,-969.71 1934.01,-1010.35 1882.98,-1057.26 1922.5,-1105.71 1975.24,-1170.36 2208.95,-1264.61 2307.35,-1302.27"/>
<polygon fill="#757575" stroke="#757575" points="2306.1,-1305.54 2316.69,-1305.83 2308.59,-1298.99 2306.1,-1305.54"/>
</g>
<!-- src/core/capi/capi_validation.mjs -->
<g id="node14" class="node">
<title>src/core/capi/capi_validation.mjs</title>
<path fill="none" stroke="#ff6c60" d="M1578.33,-1057.58C1578.33,-1057.58 1383.17,-1057.58 1383.17,-1057.58 1379.21,-1057.58 1375.25,-1053.62 1375.25,-1049.67 1375.25,-1049.67 1375.25,-1041.75 1375.25,-1041.75 1375.25,-1037.79 1379.21,-1033.83 1383.17,-1033.83 1383.17,-1033.83 1578.33,-1033.83 1578.33,-1033.83 1582.29,-1033.83 1586.25,-1037.79 1586.25,-1041.75 1586.25,-1041.75 1586.25,-1049.67 1586.25,-1049.67 1586.25,-1053.62 1582.29,-1057.58 1578.33,-1057.58"/>
<text text-anchor="middle" x="1480.75" y="-1040.28" font-family="Arial" font-size="14.00" fill="#ff6c60">src/core/capi/capi_validation.mjs</text>
</g>
<!-- src/core/capi/capi_memory.mjs&#45;&gt;src/core/capi/capi_validation.mjs -->
<g id="edge13" class="edge">
<title>src/core/capi/capi_memory.mjs&#45;&gt;src/core/capi/capi_validation.mjs</title>
<path fill="none" stroke="#757575" d="M1318.71,-888.01C1326.22,-891.57 1333.23,-896.06 1339.25,-901.71 1379.25,-939.21 1335.48,-981.96 1375.25,-1019.71 1378.51,-1022.8 1382.09,-1025.55 1385.88,-1027.98"/>
<polygon fill="#757575" stroke="#757575" points="1383.95,-1030.91 1394.4,-1032.67 1387.33,-1024.78 1383.95,-1030.91"/>
</g>
<!-- src/core/capi/capi_memory.mjs&#45;&gt;src/core/memory/memoryManager.mjs -->
<g id="edge16" class="edge">
<title>src/core/capi/capi_memory.mjs&#45;&gt;src/core/memory/memoryManager.mjs</title>
<path fill="none" stroke="#757575" d="M1289.25,-888.02C1378.96,-904.88 1542.05,-929.26 1586.25,-893.71 1644.4,-846.94 1570.53,-783.5 1622.25,-729.71 1706.38,-642.21 1797.87,-743.64 1886.5,-660.71 1923.44,-626.14 1885.7,-587.43 1922.5,-552.71 1930.06,-545.58 1938.95,-539.91 1948.46,-535.41"/>
<polygon fill="#757575" stroke="#757575" points="1949.73,-538.67 1957.59,-531.56 1947.01,-532.22 1949.73,-538.67"/>
</g>
<!-- src/core/capi/capi_memory.mjs&#45;&gt;src/core/memory/memoryOperations.mjs -->
<g id="edge17" class="edge">
<title>src/core/capi/capi_memory.mjs&#45;&gt;src/core/memory/memoryOperations.mjs</title>
<path fill="none" stroke="#757575" d="M1330.32,-886.87C1422.08,-894.65 1548.58,-898.79 1586.25,-867.71 1644.48,-819.66 1575.29,-760.82 1622.25,-701.71 1639.66,-679.8 1666.66,-665.23 1691.65,-655.75"/>
<polygon fill="#757575" stroke="#757575" points="1692.52,-659.15 1700.77,-652.5 1690.18,-652.56 1692.52,-659.15"/>
</g>
<!-- src/core/capi/capi_memory.mjs&#45;&gt;src/core/register/registerLookup.mjs -->
<g id="edge18" class="edge">
<title>src/core/capi/capi_memory.mjs&#45;&gt;src/core/register/registerLookup.mjs</title>
<path fill="none" stroke="#757575" d="M1261.41,-863.38C1328.17,-836.71 1483.7,-768.21 1586.25,-672.71 1607.36,-653.05 1597.98,-634.29 1622.25,-618.71 1624.3,-617.39 1626.4,-616.15 1628.54,-614.98"/>
<polygon fill="#757575" stroke="#757575" points="1630.05,-618.14 1637.53,-610.64 1627,-611.84 1630.05,-618.14"/>
</g>
<!-- src/core/capi/capi_validation.mjs&#45;&gt;src/core/core.mjs -->
<g id="edge29" class="edge">
<title>src/core/capi/capi_validation.mjs&#45;&gt;src/core/core.mjs</title>
<path fill="none" stroke="#757575" d="M1397.53,-1033.42C1389.44,-1029.9 1381.81,-1025.41 1375.25,-1019.71 1343.03,-991.73 1373.93,-955.57 1339.25,-930.71 1327.39,-922.21 917.69,-903.21 750.05,-895.78"/>
<polygon fill="#757575" stroke="#757575" points="750.3,-892.29 740.16,-895.34 749.99,-899.28 750.3,-892.29"/>
</g>
<!-- src/core/capi/capi_validation.mjs&#45;&gt;src/core/capi/capi_fp.mjs -->
<g id="edge28" class="edge">
<title>src/core/capi/capi_validation.mjs&#45;&gt;src/core/capi/capi_fp.mjs</title>
<path fill="none" stroke="#757575" d="M1540.86,-1033.4C1565.95,-1028.2 1595.52,-1022.12 1622.25,-1016.71 1640.8,-1012.95 1660.83,-1008.95 1679.53,-1005.25"/>
<polygon fill="#757575" stroke="#757575" points="1680.05,-1008.71 1689.18,-1003.33 1678.69,-1001.84 1680.05,-1008.71"/>
</g>
<!-- src/core/capi/capi_validation.mjs&#45;&gt;src/core/memory/memoryManager.mjs -->
<g id="edge30" class="edge">
<title>src/core/capi/capi_validation.mjs&#45;&gt;src/core/memory/memoryManager.mjs</title>
<path fill="none" stroke="#757575" d="M1514.73,-1033.35C1538.03,-1022.98 1568.21,-1005.94 1586.25,-981.71 1623.59,-931.56 1581.59,-893.21 1622.25,-845.71 1705.66,-748.27 1805.96,-829.53 1886.5,-729.71 1936.91,-667.23 1867.56,-611.24 1922.5,-552.71 1929.01,-545.77 1936.78,-540.19 1945.22,-535.72"/>
<polygon fill="#757575" stroke="#757575" points="1946.45,-539 1954.03,-531.6 1943.49,-532.66 1946.45,-539"/>
</g>
<!-- src/core/memory/memoryManager.mjs&#45;&gt;src/core/compiler/compiler.mjs -->
<g id="edge79" class="edge">
<title>src/core/memory/memoryManager.mjs&#45;&gt;src/core/compiler/compiler.mjs</title>
<path fill="none" stroke="#757575" d="M2006.47,-506.35C1840.28,-452.96 1216.84,-258.18 810,-500.71 483.52,-695.33 419.31,-1232.36 408.65,-1351.28"/>
<polygon fill="#757575" stroke="#757575" points="405.18,-1350.81 407.82,-1361.07 412.16,-1351.4 405.18,-1350.81"/>
</g>
<!-- src/core/memory/memoryManager.mjs&#45;&gt;src/core/core.mjs -->
<g id="edge80" class="edge">
<title>src/core/memory/memoryManager.mjs&#45;&gt;src/core/core.mjs</title>
<path fill="none" stroke="#757575" d="M1923.54,-507.01C1645.09,-483.55 984.05,-443.26 810,-570.71 709.83,-644.06 686.46,-807.66 681.14,-868.93"/>
<polygon fill="#757575" stroke="#757575" points="677.65,-868.63 680.38,-878.87 684.63,-869.17 677.65,-868.63"/>
</g>
<!-- src/core/memory/memoryManager.mjs&#45;&gt;src/core/memory/memoryCore.mjs -->
<g id="edge81" class="edge">
<title>src/core/memory/memoryManager.mjs&#45;&gt;src/core/memory/memoryCore.mjs</title>
<path fill="none" stroke="#757575" d="M2175.19,-511.17C2275.69,-508.15 2416.24,-506.01 2516.54,-505.98"/>
<polygon fill="#757575" stroke="#757575" points="2516.44,-509.48 2526.44,-505.99 2516.44,-502.48 2516.44,-509.48"/>
</g>
<!-- src/core/memory/memoryViewManager.mjs -->
<g id="node26" class="node">
<title>src/core/memory/memoryViewManager.mjs</title>
<path fill="none" stroke="#ff6c60" d="M2484.33,-481.58C2484.33,-481.58 2220.17,-481.58 2220.17,-481.58 2216.21,-481.58 2212.25,-477.62 2212.25,-473.67 2212.25,-473.67 2212.25,-465.75 2212.25,-465.75 2212.25,-461.79 2216.21,-457.83 2220.17,-457.83 2220.17,-457.83 2484.33,-457.83 2484.33,-457.83 2488.29,-457.83 2492.25,-461.79 2492.25,-465.75 2492.25,-465.75 2492.25,-473.67 2492.25,-473.67 2492.25,-477.62 2488.29,-481.58 2484.33,-481.58"/>
<text text-anchor="middle" x="2352.25" y="-464.28" font-family="Arial" font-size="14.00" fill="#ff6c60">src/core/memory/memoryViewManager.mjs</text>
</g>
<!-- src/core/memory/memoryManager.mjs&#45;&gt;src/core/memory/memoryViewManager.mjs -->
<g id="edge82" class="edge">
<title>src/core/memory/memoryManager.mjs&#45;&gt;src/core/memory/memoryViewManager.mjs</title>
<path fill="none" stroke="#757575" d="M2126.3,-506.34C2168.26,-499.51 2220.56,-490.99 2264.17,-483.89"/>
<polygon fill="#757575" stroke="#757575" points="2264.55,-487.37 2273.86,-482.31 2263.42,-480.46 2264.55,-487.37"/>
</g>
<!-- src/core/memory/memoryOperations.mjs&#45;&gt;src/core/compiler/compiler.mjs -->
<g id="edge83" class="edge">
<title>src/core/memory/memoryOperations.mjs&#45;&gt;src/core/compiler/compiler.mjs</title>
<path fill="none" stroke="#757575" d="M1621.91,-638.79C1398.05,-633.47 953.16,-624.16 810,-682.71 686.16,-733.35 658.27,-769.93 583.25,-880.71 474.35,-1041.52 425.39,-1276.7 411.27,-1351.29"/>
<polygon fill="#757575" stroke="#757575" points="407.84,-1350.62 409.44,-1361.09 414.72,-1351.9 407.84,-1350.62"/>
</g>
<!-- src/core/memory/memoryOperations.mjs&#45;&gt;src/core/core.mjs -->
<g id="edge84" class="edge">
<title>src/core/memory/memoryOperations.mjs&#45;&gt;src/core/core.mjs</title>
<path fill="none" stroke="#757575" d="M1621.76,-644.77C1379.04,-654.97 879.29,-680.35 810,-718.71 747.48,-753.32 706.13,-831.9 688.83,-870.48"/>
<polygon fill="#757575" stroke="#757575" points="685.79,-868.71 685.01,-879.27 692.21,-871.49 685.79,-868.71"/>
</g>
<!-- src/core/memory/memoryOperations.mjs&#45;&gt;src/core/memory/memoryManager.mjs -->
<g id="edge86" class="edge">
<title>src/core/memory/memoryOperations.mjs&#45;&gt;src/core/memory/memoryManager.mjs</title>
<path fill="none" stroke="#757575" d="M1871.49,-627.39C1876.75,-624.91 1881.79,-622.03 1886.5,-618.71 1913.79,-599.43 1896.26,-573.39 1922.5,-552.71 1931.96,-545.25 1942.92,-539.42 1954.36,-534.87"/>
<polygon fill="#757575" stroke="#757575" points="1955.33,-538.25 1963.54,-531.56 1952.95,-531.66 1955.33,-538.25"/>
</g>
<!-- src/core/memory/memoryOperations.mjs&#45;&gt;src/core/memory/memoryCore.mjs -->
<g id="edge85" class="edge">
<title>src/core/memory/memoryOperations.mjs&#45;&gt;src/core/memory/memoryCore.mjs</title>
<path fill="none" stroke="#757575" d="M1853.01,-627.36C1994.28,-609.2 2263.8,-573.44 2492.25,-536.71 2515.91,-532.9 2541.62,-528.37 2564.88,-524.11"/>
<polygon fill="#757575" stroke="#757575" points="2565.4,-527.57 2574.6,-522.32 2564.13,-520.69 2565.4,-527.57"/>
</g>
<!-- src/core/memory/memoryOperations.mjs&#45;&gt;src/core/memory/memoryViewManager.mjs -->
<g id="edge87" class="edge">
<title>src/core/memory/memoryOperations.mjs&#45;&gt;src/core/memory/memoryViewManager.mjs</title>
<path fill="none" stroke="#757575" d="M1874.5,-627.36C1878.75,-624.84 1882.77,-621.98 1886.5,-618.71 1928.67,-581.7 1878.64,-532.7 1922.5,-497.71 2029.86,-412.05 2204.58,-435.12 2294.23,-454.83"/>
<polygon fill="#757575" stroke="#757575" points="2293.25,-458.2 2303.77,-457 2294.8,-451.37 2293.25,-458.2"/>
</g>
<!-- src/core/register/registerLookup.mjs&#45;&gt;src/core/core.mjs -->
<g id="edge96" class="edge">
<title>src/core/register/registerLookup.mjs&#45;&gt;src/core/core.mjs</title>
<path fill="none" stroke="#757575" d="M1695.22,-585.34C1538.38,-555.32 1099.04,-493.66 810,-673.71 736.57,-719.45 699.25,-823.07 685.72,-869.48"/>
<polygon fill="#757575" stroke="#757575" points="682.38,-868.43 683.06,-879.01 689.12,-870.32 682.38,-868.43"/>
</g>
<!-- src/core/capi/capi_syscall.mjs -->
<g id="node18" class="node">
<title>src/core/capi/capi_syscall.mjs</title>
<path fill="none" stroke="#ff6c60" d="M1317.46,-750.58C1317.46,-750.58 1138.79,-750.58 1138.79,-750.58 1134.83,-750.58 1130.88,-746.62 1130.88,-742.67 1130.88,-742.67 1130.88,-734.75 1130.88,-734.75 1130.88,-730.79 1134.83,-726.83 1138.79,-726.83 1138.79,-726.83 1317.46,-726.83 1317.46,-726.83 1321.42,-726.83 1325.38,-730.79 1325.38,-734.75 1325.38,-734.75 1325.38,-742.67 1325.38,-742.67 1325.38,-746.62 1321.42,-750.58 1317.46,-750.58"/>
<text text-anchor="middle" x="1228.12" y="-733.28" font-family="Arial" font-size="14.00" fill="#ff6c60">src/core/capi/capi_syscall.mjs</text>
</g>
<!-- src/core/capi/capi_syscall.mjs&#45;&gt;src/core/core.mjs -->
<g id="edge20" class="edge">
<title>src/core/capi/capi_syscall.mjs&#45;&gt;src/core/core.mjs</title>
<path fill="none" stroke="#757575" d="M1132.39,-726.35C1044.82,-719.05 913.06,-718.78 810,-764.71 757.94,-787.91 714.73,-841.6 693.6,-871.55"/>
<polygon fill="#757575" stroke="#757575" points="690.93,-869.25 688.15,-879.47 696.7,-873.21 690.93,-869.25"/>
</g>
<!-- src/core/capi/capi_syscall.mjs&#45;&gt;src/core/executor/executor.mjs -->
<g id="edge21" class="edge">
<title>src/core/capi/capi_syscall.mjs&#45;&gt;src/core/executor/executor.mjs</title>
<path fill="none" stroke="#757575" d="M1245.74,-750.85C1270.52,-769.95 1316.64,-809.51 1339.25,-854.71 1382,-940.18 1336.85,-979.19 1375.25,-1066.71 1395.38,-1112.59 1434.5,-1156.75 1458.75,-1181.45"/>
<polygon fill="#757575" stroke="#757575" points="1456.03,-1183.68 1465.58,-1188.28 1460.98,-1178.73 1456.03,-1183.68"/>
</g>
<!-- src/core/capi/capi_syscall.mjs&#45;&gt;src/core/utils/creator_ga.mjs -->
<g id="edge26" class="edge">
<title>src/core/capi/capi_syscall.mjs&#45;&gt;src/core/utils/creator_ga.mjs</title>
<path fill="none" stroke="#757575" d="M1248.13,-751.02C1316.05,-795.44 1544.96,-948.83 1586.25,-1024.71 1624.15,-1094.36 1567.82,-1322.04 1622.25,-1379.71 1630.08,-1388.01 1639.79,-1393.88 1650.35,-1397.96"/>
<polygon fill="#757575" stroke="#757575" points="1649.13,-1401.24 1659.72,-1400.99 1651.29,-1394.58 1649.13,-1401.24"/>
</g>
<!-- src/core/capi/capi_syscall.mjs&#45;&gt;src/core/utils/utils.mjs -->
<g id="edge27" class="edge">
<title>src/core/capi/capi_syscall.mjs&#45;&gt;src/core/utils/utils.mjs</title>
<path fill="none" stroke="#757575" d="M1235.47,-726.37C1253,-693.52 1305.46,-603.24 1375.25,-556.71 1634.38,-383.9 1736.91,-361.71 2048.38,-361.71 2048.38,-361.71 2048.38,-361.71 2353.25,-361.71 2533.85,-361.71 2739.89,-438.36 2823.85,-473.03"/>
<polygon fill="#757575" stroke="#757575" points="2822.44,-476.23 2833.01,-476.85 2825.13,-469.77 2822.44,-476.23"/>
</g>
<!-- src/core/capi/capi_syscall.mjs&#45;&gt;src/core/memory/memoryManager.mjs -->
<g id="edge22" class="edge">
<title>src/core/capi/capi_syscall.mjs&#45;&gt;src/core/memory/memoryManager.mjs</title>
<path fill="none" stroke="#757575" d="M1240.72,-726.57C1263.9,-703.08 1318.62,-651.48 1375.25,-625.71 1549.32,-546.5 1771.9,-524.65 1912.35,-519.32"/>
<polygon fill="#757575" stroke="#757575" points="1912.19,-522.82 1922.06,-518.97 1911.95,-515.83 1912.19,-522.82"/>
</g>
<!-- src/core/capi/capi_syscall.mjs&#45;&gt;src/core/memory/memoryOperations.mjs -->
<g id="edge23" class="edge">
<title>src/core/capi/capi_syscall.mjs&#45;&gt;src/core/memory/memoryOperations.mjs</title>
<path fill="none" stroke="#757575" d="M1325.69,-741.84C1398.38,-741.97 1499.92,-737.34 1586.25,-715.71 1599.74,-712.33 1672.5,-678.24 1717.45,-656.88"/>
<polygon fill="#757575" stroke="#757575" points="1718.79,-660.12 1726.32,-652.66 1715.78,-653.8 1718.79,-660.12"/>
</g>
<!-- src/core/capi/capi_syscall.mjs&#45;&gt;src/core/register/registerLookup.mjs -->
<g id="edge24" class="edge">
<title>src/core/capi/capi_syscall.mjs&#45;&gt;src/core/register/registerLookup.mjs</title>
<path fill="none" stroke="#757575" d="M1263.66,-726.4C1331.56,-702.61 1487.55,-649.9 1622.25,-618.71 1632.59,-616.31 1643.44,-614.1 1654.3,-612.09"/>
<polygon fill="#757575" stroke="#757575" points="1654.88,-615.54 1664.1,-610.32 1653.64,-608.65 1654.88,-615.54"/>
</g>
<!-- src/core/capi/capi_syscall.mjs&#45;&gt;src/core/register/registerOperations.mjs -->
<g id="edge25" class="edge">
<title>src/core/capi/capi_syscall.mjs&#45;&gt;src/core/register/registerOperations.mjs</title>
<path fill="none" stroke="#757575" d="M1314.19,-751.06C1444.71,-772.82 1698.94,-826.54 1886.5,-936.71 1946.57,-971.99 2003.45,-1032.42 2031.02,-1064.05"/>
<polygon fill="#757575" stroke="#757575" points="2028.15,-1066.07 2037.32,-1071.37 2033.46,-1061.5 2028.15,-1066.07"/>
</g>
<!-- src/core/register/registerOperations.mjs&#45;&gt;src/core/compiler/compiler.mjs -->
<g id="edge97" class="edge">
<title>src/core/register/registerOperations.mjs&#45;&gt;src/core/compiler/compiler.mjs</title>
<path fill="none" stroke="#757575" d="M2044.42,-1096.98C2026.11,-1152.9 1947.93,-1382.53 1886.5,-1421.71 1885.36,-1422.44 1079.59,-1433.21 774,-1434.71 689.22,-1435.12 666.89,-1448.54 583.25,-1434.71 533.62,-1426.5 479.2,-1406.15 444.09,-1391.42"/>
<polygon fill="#757575" stroke="#757575" points="445.81,-1388.34 435.24,-1387.64 443.06,-1394.78 445.81,-1388.34"/>
</g>
<!-- src/core/register/registerOperations.mjs&#45;&gt;src/core/core.mjs -->
<g id="edge98" class="edge">
<title>src/core/register/registerOperations.mjs&#45;&gt;src/core/core.mjs</title>
<path fill="none" stroke="#757575" d="M2040.75,-1072.45C2020.3,-1040.79 1960.7,-956.15 1886.5,-919.71 1487.1,-723.52 920.03,-834.19 738.16,-877.66"/>
<polygon fill="#757575" stroke="#757575" points="737.36,-874.26 728.46,-880.01 739,-881.06 737.36,-874.26"/>
</g>
<!-- src/core/register/registerOperations.mjs&#45;&gt;src/core/executor/executor.mjs -->
<g id="edge99" class="edge">
<title>src/core/register/registerOperations.mjs&#45;&gt;src/core/executor/executor.mjs</title>
<path fill="none" stroke="#757575" d="M1922.35,-1095.04C1835.14,-1102.21 1718,-1117.64 1622.25,-1157.71 1603.8,-1165.43 1604.31,-1176.12 1586.25,-1184.71 1586.14,-1184.76 1586.03,-1184.81 1585.93,-1184.86"/>
<polygon fill="#757575" stroke="#757575" points="1584.73,-1181.56 1576.95,-1188.75 1587.52,-1187.99 1584.73,-1181.56"/>
</g>
<!-- src/core/register/registerOperations.mjs&#45;&gt;src/core/sentinel/sentinel.mjs -->
<g id="edge101" class="edge">
<title>src/core/register/registerOperations.mjs&#45;&gt;src/core/sentinel/sentinel.mjs</title>
<path fill="none" stroke="#757575" d="M2148.24,-1097.06C2158.14,-1100.58 2167.69,-1105.04 2176.25,-1110.71 2199.69,-1126.22 2194.87,-1140.62 2212.25,-1162.71 2252.3,-1213.6 2304.09,-1269.38 2331.77,-1298.48"/>
<polygon fill="#757575" stroke="#757575" points="2329.06,-1300.71 2338.5,-1305.52 2334.12,-1295.87 2329.06,-1300.71"/>
</g>
<!-- src/core/register/registerOperations.mjs&#45;&gt;src/core/utils/creator_logger.mjs -->
<g id="edge103" class="edge">
<title>src/core/register/registerOperations.mjs&#45;&gt;src/core/utils/creator_logger.mjs</title>
<path fill="none" stroke="#757575" d="M2137.06,-1097.05C2248.73,-1114.23 2435.24,-1147.68 2492.25,-1186.71 2564.68,-1236.29 2612.59,-1333.75 2631.51,-1377.95"/>
<polygon fill="#757575" stroke="#757575" points="2628.23,-1379.17 2635.3,-1387.06 2634.69,-1376.48 2628.23,-1379.17"/>
</g>
<!-- src/core/register/registerOperations.mjs&#45;&gt;src/core/utils/bigint.mjs -->
<g id="edge102" class="edge">
<title>src/core/register/registerOperations.mjs&#45;&gt;src/core/utils/bigint.mjs</title>
<path fill="none" stroke="#757575" d="M2060.42,-1072.66C2110.43,-1012.37 2336.4,-736.6 2492.25,-490.71 2550.14,-399.38 2607.09,-283.36 2630.04,-235.21"/>
<polygon fill="#757575" stroke="#757575" points="2633.11,-236.9 2634.24,-226.36 2626.79,-233.9 2633.11,-236.9"/>
</g>
<!-- src/core/register/fpRegisterSync.mjs -->
<g id="node27" class="node">
<title>src/core/register/fpRegisterSync.mjs</title>
<path fill="none" stroke="#ff6c60" d="M2461.08,-333.58C2461.08,-333.58 2243.42,-333.58 2243.42,-333.58 2239.46,-333.58 2235.5,-329.62 2235.5,-325.67 2235.5,-325.67 2235.5,-317.75 2235.5,-317.75 2235.5,-313.79 2239.46,-309.83 2243.42,-309.83 2243.42,-309.83 2461.08,-309.83 2461.08,-309.83 2465.04,-309.83 2469,-313.79 2469,-317.75 2469,-317.75 2469,-325.67 2469,-325.67 2469,-329.62 2465.04,-333.58 2461.08,-333.58"/>
<text text-anchor="middle" x="2352.25" y="-316.28" font-family="Arial" font-size="14.00" fill="#ff6c60">src/core/register/fpRegisterSync.mjs</text>
</g>
<!-- src/core/register/registerOperations.mjs&#45;&gt;src/core/register/fpRegisterSync.mjs -->
<g id="edge100" class="edge">
<title>src/core/register/registerOperations.mjs&#45;&gt;src/core/register/fpRegisterSync.mjs</title>
<path fill="none" stroke="#757575" d="M2052.9,-1072.55C2072.78,-984.71 2203.59,-454.15 2212.25,-439.71 2237.53,-397.53 2281.1,-361.06 2312.73,-339.99"/>
<polygon fill="#757575" stroke="#757575" points="2314.33,-343.12 2320.86,-334.77 2310.55,-337.23 2314.33,-343.12"/>
</g>
<!-- src/core/capi/initCAPI.mjs&#45;&gt;src/core/capi/capi_check_stack.mjs -->
<g id="edge31" class="edge">
<title>src/core/capi/initCAPI.mjs&#45;&gt;src/core/capi/capi_check_stack.mjs</title>
<path fill="none" stroke="#757575" d="M908.88,-964.07C798.94,-1003.86 460.52,-1138.64 264.25,-1353.71 239.06,-1381.32 257.87,-1406.91 228.25,-1429.71 226.89,-1430.75 225.49,-1431.75 224.06,-1432.71"/>
<polygon fill="#757575" stroke="#757575" points="222.44,-1429.61 215.52,-1437.63 225.93,-1435.67 222.44,-1429.61"/>
</g>
<!-- src/core/capi/initCAPI.mjs&#45;&gt;src/core/capi/capi_draw_stack.mjs -->
<g id="edge32" class="edge">
<title>src/core/capi/initCAPI.mjs&#45;&gt;src/core/capi/capi_draw_stack.mjs</title>
<path fill="none" stroke="#757575" d="M960.04,-963.77C1004.94,-1003.77 1149.31,-1132.38 1204.96,-1181.96"/>
<polygon fill="#757575" stroke="#757575" points="1202.47,-1184.43 1212.27,-1188.47 1207.13,-1179.21 1202.47,-1184.43"/>
</g>
<!-- src/core/capi/initCAPI.mjs&#45;&gt;src/core/capi/capi_fp.mjs -->
<g id="edge33" class="edge">
<title>src/core/capi/initCAPI.mjs&#45;&gt;src/core/capi/capi_fp.mjs</title>
<path fill="none" stroke="#757575" d="M1030.96,-961.95C1138.5,-975.52 1313.55,-999.64 1339.25,-1015.71 1362.77,-1030.42 1350.62,-1053.94 1375.25,-1066.71 1458.51,-1109.85 1504.47,-1112.61 1586.25,-1066.71 1613.04,-1051.67 1596.49,-1024.44 1622.25,-1007.71 1633.72,-1000.26 1646.95,-995.36 1660.51,-992.22"/>
<polygon fill="#757575" stroke="#757575" points="1660.8,-995.73 1669.93,-990.36 1659.44,-988.86 1660.8,-995.73"/>
</g>
<!-- src/core/capi/initCAPI.mjs&#45;&gt;src/core/capi/capi_memory.mjs -->
<g id="edge34" class="edge">
<title>src/core/capi/initCAPI.mjs&#45;&gt;src/core/capi/capi_memory.mjs</title>
<path fill="none" stroke="#757575" d="M991.9,-939.41C1040.7,-926.19 1118.35,-905.17 1170.96,-890.92"/>
<polygon fill="#757575" stroke="#757575" points="1171.59,-894.37 1180.33,-888.38 1169.76,-887.62 1171.59,-894.37"/>
</g>
<!-- src/core/capi/initCAPI.mjs&#45;&gt;src/core/capi/capi_validation.mjs -->
<g id="edge36" class="edge">
<title>src/core/capi/initCAPI.mjs&#45;&gt;src/core/capi/capi_validation.mjs</title>
<path fill="none" stroke="#757575" d="M1028.75,-939.37C1111.7,-930.86 1241.18,-928.61 1339.25,-977.71 1361.23,-988.71 1354.33,-1006.79 1375.25,-1019.71 1381.5,-1023.57 1388.3,-1026.85 1395.32,-1029.65"/>
<polygon fill="#757575" stroke="#757575" points="1393.73,-1032.8 1404.32,-1032.9 1396.1,-1026.21 1393.73,-1032.8"/>
</g>
<!-- src/core/capi/initCAPI.mjs&#45;&gt;src/core/capi/capi_syscall.mjs -->
<g id="edge35" class="edge">
<title>src/core/capi/initCAPI.mjs&#45;&gt;src/core/capi/capi_syscall.mjs</title>
<path fill="none" stroke="#757575" d="M962.8,-939.34C1009.8,-903.66 1145.79,-800.44 1202.18,-757.64"/>
<polygon fill="#757575" stroke="#757575" points="1204.07,-760.6 1209.92,-751.76 1199.84,-755.02 1204.07,-760.6"/>
</g>
<!-- src/core/memory/memoryCore.mjs&#45;&gt;src/core/core.mjs -->
<g id="edge75" class="edge">
<title>src/core/memory/memoryCore.mjs&#45;&gt;src/core/core.mjs</title>
<path fill="none" stroke="#757575" d="M2597.49,-497.42C2568.25,-485.83 2528.47,-469.25 2492.25,-457.71 2354.91,-413.94 2317.74,-412.25 2176.25,-384.71 2048.26,-359.8 2016.47,-349.18 1886.5,-338.71 1767.23,-329.1 902.07,-292.28 810,-368.71 729.94,-435.17 691.58,-776.34 682.05,-869.38"/>
<polygon fill="#757575" stroke="#757575" points="678.59,-868.78 681.07,-879.08 685.56,-869.48 678.59,-868.78"/>
</g>
<!-- src/core/memory/memoryCore.mjs&#45;&gt;src/core/utils/utils.mjs -->
<g id="edge78" class="edge">
<title>src/core/memory/memoryCore.mjs&#45;&gt;src/core/utils/utils.mjs</title>
<path fill="none" stroke="#757575" d="M2755.46,-499.44C2763.47,-498.72 2771.45,-497.99 2779.25,-497.28"/>
<polygon fill="#757575" stroke="#757575" points="2779.36,-500.78 2789,-496.39 2778.73,-493.81 2779.36,-500.78"/>
</g>
<!-- src/core/memory/memoryCore.mjs&#45;&gt;src/core/memory/memoryManager.mjs -->
<g id="edge76" class="edge">
<title>src/core/memory/memoryCore.mjs&#45;&gt;src/core/memory/memoryManager.mjs</title>
<path fill="none" stroke="#757575" d="M2527.96,-516.86C2430.78,-519.97 2290.17,-522.23 2186.67,-522.42"/>
<polygon fill="#757575" stroke="#757575" points="2186.7,-518.92 2176.7,-522.43 2186.71,-525.92 2186.7,-518.92"/>
</g>
<!-- src/core/memory/memoryCore.mjs&#45;&gt;src/core/memory/memoryViewManager.mjs -->
<g id="edge77" class="edge">
<title>src/core/memory/memoryCore.mjs&#45;&gt;src/core/memory/memoryViewManager.mjs</title>
<path fill="none" stroke="#757575" d="M2527.88,-500.62C2489.53,-495.64 2448.1,-489.56 2415.22,-484"/>
<polygon fill="#757575" stroke="#757575" points="2415.91,-480.57 2405.46,-482.32 2414.72,-487.46 2415.91,-480.57"/>
</g>
<!-- src/core/utils/bigint.mjs&#45;&gt;src/core/core.mjs -->
<g id="edge107" class="edge">
<title>src/core/utils/bigint.mjs&#45;&gt;src/core/core.mjs</title>
<path fill="none" stroke="#757575" d="M2564.85,-213.37C2541.58,-211.7 2515.89,-209.74 2492.25,-208.71 2367.92,-203.27 2336.68,-207.06 2212.25,-208.71 725.59,-228.39 840.65,-226.33 810,-252.71 713.22,-336.01 686.22,-763.7 680.78,-869.25"/>
<polygon fill="#757575" stroke="#757575" points="677.3,-868.81 680.3,-878.97 684.29,-869.15 677.3,-868.81"/>
</g>
<!-- src/core/utils/bigint.mjs&#45;&gt;src/core/utils/utils.mjs -->
<g id="edge108" class="edge">
<title>src/core/utils/bigint.mjs&#45;&gt;src/core/utils/utils.mjs</title>
<path fill="none" stroke="#757575" d="M2660.17,-224.85C2683.7,-241.74 2725.91,-274.16 2755,-308.71 2798.33,-360.17 2834.93,-431.21 2852.07,-467.06"/>
<polygon fill="#757575" stroke="#757575" points="2848.87,-468.47 2856.3,-476.03 2855.2,-465.49 2848.87,-468.47"/>
</g>
<!-- src/core/executor/decoder.mjs&#45;&gt;src/core/core.mjs -->
<g id="edge54" class="edge">
<title>src/core/executor/decoder.mjs&#45;&gt;src/core/core.mjs</title>
<path fill="none" stroke="#757575" d="M1655.51,-1357.48C1578.75,-1355.13 1469.48,-1348.73 1375.25,-1331.71 1257.51,-1310.44 1221.63,-1313.74 1117,-1255.71 1098.28,-1245.32 1100.27,-1233.04 1081,-1223.71 970.91,-1170.4 906.84,-1250.43 810,-1175.71 723.38,-1108.87 692.25,-971.01 683,-916.06"/>
<polygon fill="#757575" stroke="#757575" points="686.47,-915.63 681.46,-906.3 679.56,-916.72 686.47,-915.63"/>
</g>
<!-- src/core/executor/decoder.mjs&#45;&gt;src/core/utils/creator_logger.mjs -->
<g id="edge55" class="edge">
<title>src/core/executor/decoder.mjs&#45;&gt;src/core/utils/creator_logger.mjs</title>
<path fill="none" stroke="#757575" d="M1853.07,-1363.34C2017.96,-1371.17 2350.64,-1386.95 2526.18,-1395.28"/>
<polygon fill="#757575" stroke="#757575" points="2525.85,-1398.77 2536,-1395.74 2526.18,-1391.77 2525.85,-1398.77"/>
</g>
<!-- src/core/executor/preload.mjs&#45;&gt;src/core/compiler/compiler.mjs -->
<g id="edge70" class="edge">
<title>src/core/executor/preload.mjs&#45;&gt;src/core/compiler/compiler.mjs</title>
<path fill="none" stroke="#757575" d="M1677.85,-1493.02C1659.48,-1496.74 1640.01,-1501.3 1622.25,-1506.71 1605.67,-1511.75 1602.89,-1516.86 1586.25,-1521.71 1431.58,-1566.74 1390.22,-1583.71 1229.12,-1583.71 944.5,-1583.71 944.5,-1583.71 944.5,-1583.71 735.05,-1583.71 508.97,-1444.26 433.18,-1393.17"/>
<polygon fill="#757575" stroke="#757575" points="435.38,-1390.44 425.15,-1387.7 431.44,-1396.22 435.38,-1390.44"/>
</g>
<!-- src/core/executor/preload.mjs&#45;&gt;src/core/core.mjs -->
<g id="edge71" class="edge">
<title>src/core/executor/preload.mjs&#45;&gt;src/core/core.mjs</title>
<path fill="none" stroke="#757575" d="M1657.16,-1472.07C1525.84,-1456.49 1287.38,-1414.35 1117,-1304.71 1096.04,-1291.22 1102.57,-1274.19 1081,-1261.71 975.13,-1200.45 905.1,-1290.64 810,-1213.71 713.95,-1136.01 688.1,-976.36 681.63,-916.27"/>
<polygon fill="#757575" stroke="#757575" points="685.14,-916.15 680.68,-906.53 678.17,-916.83 685.14,-916.15"/>
</g>
<!-- src/core/executor/preload.mjs&#45;&gt;src/core/utils/creator_logger.mjs -->
<g id="edge73" class="edge">
<title>src/core/executor/preload.mjs&#45;&gt;src/core/utils/creator_logger.mjs</title>
<path fill="none" stroke="#757575" d="M1851.38,-1472.03C2015.73,-1457.18 2350.28,-1426.95 2526.37,-1411.03"/>
<polygon fill="#757575" stroke="#757575" points="2526.59,-1414.53 2536.23,-1410.14 2525.96,-1407.56 2526.59,-1414.53"/>
</g>
<!-- src/core/executor/preload.mjs&#45;&gt;src/core/utils/utils.mjs -->
<g id="edge74" class="edge">
<title>src/core/executor/preload.mjs&#45;&gt;src/core/utils/utils.mjs</title>
<path fill="none" stroke="#757575" d="M1791.81,-1492.99C1936.96,-1539.37 2479.4,-1688.15 2755,-1421.71 2822.57,-1356.39 2855.68,-651.33 2861.54,-513.13"/>
<polygon fill="#757575" stroke="#757575" points="2865.03,-513.53 2861.95,-503.4 2858.04,-513.24 2865.03,-513.53"/>
</g>
<!-- src/core/executor/preload.mjs&#45;&gt;src/core/register/registerOperations.mjs -->
<g id="edge72" class="edge">
<title>src/core/executor/preload.mjs&#45;&gt;src/core/register/registerOperations.mjs</title>
<path fill="none" stroke="#757575" d="M1851.54,-1472.92C1864.18,-1468.78 1876.28,-1462.92 1886.5,-1454.71 1901.31,-1442.8 2007.17,-1185.61 2039.21,-1107.2"/>
<polygon fill="#757575" stroke="#757575" points="2042.27,-1108.96 2042.81,-1098.38 2035.79,-1106.32 2042.27,-1108.96"/>
</g>
<!-- src/core/memory/memoryViewManager.mjs&#45;&gt;src/core/core.mjs -->
<g id="edge88" class="edge">
<title>src/core/memory/memoryViewManager.mjs&#45;&gt;src/core/core.mjs</title>
<path fill="none" stroke="#757575" d="M2296.21,-457.37C2261.81,-449.83 2216.54,-440.23 2176.25,-432.71 1824.33,-367 1730.47,-303.17 1375.25,-347.71 1118.02,-379.96 999.17,-314.44 810,-491.71 697.61,-597.03 681.9,-800.1 679.86,-869.1"/>
<polygon fill="#757575" stroke="#757575" points="676.37,-868.78 679.66,-878.86 683.37,-868.93 676.37,-868.78"/>
</g>
<!-- src/core/memory/memoryViewManager.mjs&#45;&gt;src/core/utils/utils.mjs -->
<g id="edge90" class="edge">
<title>src/core/memory/memoryViewManager.mjs&#45;&gt;src/core/utils/utils.mjs</title>
<path fill="none" stroke="#757575" d="M2492.74,-475.19C2584.66,-478.8 2701.94,-483.4 2779.48,-486.45"/>
<polygon fill="#757575" stroke="#757575" points="2778.99,-489.93 2789.12,-486.83 2779.26,-482.94 2778.99,-489.93"/>
</g>
<!-- src/core/memory/memoryViewManager.mjs&#45;&gt;src/core/memory/memoryCore.mjs -->
<g id="edge89" class="edge">
<title>src/core/memory/memoryViewManager.mjs&#45;&gt;src/core/memory/memoryCore.mjs</title>
<path fill="none" stroke="#757575" d="M2490.2,-482.03C2521.18,-486.28 2552.58,-491.01 2578.62,-495.41"/>
<polygon fill="#757575" stroke="#757575" points="2577.87,-498.83 2588.31,-497.08 2579.06,-491.93 2577.87,-498.83"/>
</g>
<!-- src/core/register/fpRegisterSync.mjs&#45;&gt;src/core/core.mjs -->
<g id="edge92" class="edge">
<title>src/core/register/fpRegisterSync.mjs&#45;&gt;src/core/core.mjs</title>
<path fill="none" stroke="#757575" d="M2326.8,-309.36C2293.65,-293.3 2232.15,-265.84 2176.25,-253.71 1993.16,-213.96 1942.73,-229.71 1755.38,-229.71 1479.75,-229.71 1479.75,-229.71 1479.75,-229.71 1405.02,-229.71 865.95,-242.16 810,-291.71 720.89,-370.61 688.1,-767.97 681.13,-869.21"/>
<polygon fill="#757575" stroke="#757575" points="677.65,-868.8 680.47,-879.01 684.63,-869.27 677.65,-868.8"/>
</g>
<!-- src/core/register/fpRegisterSync.mjs&#45;&gt;src/core/utils/utils.mjs -->
<g id="edge95" class="edge">
<title>src/core/register/fpRegisterSync.mjs&#45;&gt;src/core/utils/utils.mjs</title>
<path fill="none" stroke="#757575" d="M2424.13,-309.38C2508.38,-298.37 2650.68,-291.56 2755,-347.71 2804.2,-374.19 2837.5,-434.03 2852.84,-466.95"/>
<polygon fill="#757575" stroke="#757575" points="2849.61,-468.29 2856.89,-475.99 2855.99,-465.43 2849.61,-468.29"/>
</g>
<!-- src/core/register/fpRegisterSync.mjs&#45;&gt;src/core/register/registerOperations.mjs -->
<g id="edge93" class="edge">
<title>src/core/register/fpRegisterSync.mjs&#45;&gt;src/core/register/registerOperations.mjs</title>
<path fill="none" stroke="#757575" d="M2339.03,-333.94C2311.79,-355.66 2245.85,-401.63 2212.25,-457.71 2204.04,-471.41 2085.91,-949.51 2056.81,-1061.5"/>
<polygon fill="#757575" stroke="#757575" points="2053.46,-1060.49 2054.31,-1071.05 2060.23,-1062.26 2053.46,-1060.49"/>
</g>
<!-- src/core/register/fpRegisterSync.mjs&#45;&gt;src/core/utils/bigint.mjs -->
<g id="edge94" class="edge">
<title>src/core/register/fpRegisterSync.mjs&#45;&gt;src/core/utils/bigint.mjs</title>
<path fill="none" stroke="#757575" d="M2443.01,-309.36C2459.64,-305.83 2476.67,-301.35 2492.25,-295.71 2537.43,-279.34 2585.15,-250.23 2613.91,-231.19"/>
<polygon fill="#757575" stroke="#757575" points="2615.65,-234.24 2622,-225.76 2611.75,-228.43 2615.65,-234.24"/>
</g>
<!-- src/web/App.vue -->
<g id="node28" class="node">
<title>src/web/App.vue</title>
<path fill="none" stroke="#c6c5fe" d="M455.71,-1829.58C455.71,-1829.58 355.79,-1829.58 355.79,-1829.58 351.83,-1829.58 347.88,-1825.62 347.88,-1821.67 347.88,-1821.67 347.88,-1813.75 347.88,-1813.75 347.88,-1809.79 351.83,-1805.83 355.79,-1805.83 355.79,-1805.83 455.71,-1805.83 455.71,-1805.83 459.67,-1805.83 463.62,-1809.79 463.62,-1813.75 463.62,-1813.75 463.62,-1821.67 463.62,-1821.67 463.62,-1825.62 459.67,-1829.58 455.71,-1829.58"/>
<text text-anchor="middle" x="405.75" y="-1812.28" font-family="Arial" font-size="14.00" fill="#c6c5fe">src/web/App.vue</text>
</g>
<!-- src/web/stuff/mycoolstuff.mts -->
<g id="node29" class="node">
<title>src/web/stuff/mycoolstuff.mts</title>
<path fill="none" stroke="#cfffac" d="M766.08,-1869.58C766.08,-1869.58 591.17,-1869.58 591.17,-1869.58 587.21,-1869.58 583.25,-1865.62 583.25,-1861.67 583.25,-1861.67 583.25,-1853.75 583.25,-1853.75 583.25,-1849.79 587.21,-1845.83 591.17,-1845.83 591.17,-1845.83 766.08,-1845.83 766.08,-1845.83 770.04,-1845.83 774,-1849.79 774,-1853.75 774,-1853.75 774,-1861.67 774,-1861.67 774,-1865.62 770.04,-1869.58 766.08,-1869.58"/>
<text text-anchor="middle" x="678.62" y="-1852.28" font-family="Arial" font-size="14.00" fill="#cfffac">src/web/stuff/mycoolstuff.mts</text>
</g>
<!-- src/web/App.vue&#45;&gt;src/web/stuff/mycoolstuff.mts -->
<g id="edge109" class="edge">
<title>src/web/App.vue&#45;&gt;src/web/stuff/mycoolstuff.mts</title>
<path fill="none" stroke="#757575" d="M463.86,-1826.14C498.27,-1831.22 542.94,-1837.82 582.55,-1843.67"/>
<polygon fill="#757575" stroke="#757575" points="581.94,-1847.12 592.35,-1845.11 582.97,-1840.19 581.94,-1847.12"/>
</g>
<!-- src/web/stuff/mystuff.mjs -->
<g id="node30" class="node">
<title>src/web/stuff/mystuff.mjs</title>
<path fill="none" stroke="#cfffac" d="M753.33,-1827.58C753.33,-1827.58 603.92,-1827.58 603.92,-1827.58 599.96,-1827.58 596,-1823.62 596,-1819.67 596,-1819.67 596,-1811.75 596,-1811.75 596,-1807.79 599.96,-1803.83 603.92,-1803.83 603.92,-1803.83 753.33,-1803.83 753.33,-1803.83 757.29,-1803.83 761.25,-1807.79 761.25,-1811.75 761.25,-1811.75 761.25,-1819.67 761.25,-1819.67 761.25,-1823.62 757.29,-1827.58 753.33,-1827.58"/>
<text text-anchor="middle" x="678.62" y="-1810.28" font-family="Arial" font-size="14.00" fill="#cfffac">src/web/stuff/mystuff.mjs</text>
</g>
<!-- src/web/App.vue&#45;&gt;src/web/stuff/mystuff.mjs -->
<g id="edge110" class="edge">
<title>src/web/App.vue&#45;&gt;src/web/stuff/mystuff.mjs</title>
<path fill="none" stroke="#757575" d="M463.86,-1817.29C498.76,-1817.03 544.23,-1816.69 584.26,-1816.4"/>
<polygon fill="#757575" stroke="#757575" points="584.18,-1819.9 594.15,-1816.32 584.12,-1812.9 584.18,-1819.9"/>
</g>
<!-- src/web/assets/main.css -->
<g id="node31" class="node">
<title>src/web/assets/main.css</title>
<path fill="none" stroke="#cfffac" d="M479.33,-1787.58C479.33,-1787.58 332.17,-1787.58 332.17,-1787.58 328.21,-1787.58 324.25,-1783.62 324.25,-1779.67 324.25,-1779.67 324.25,-1771.75 324.25,-1771.75 324.25,-1767.79 328.21,-1763.83 332.17,-1763.83 332.17,-1763.83 479.33,-1763.83 479.33,-1763.83 483.29,-1763.83 487.25,-1767.79 487.25,-1771.75 487.25,-1771.75 487.25,-1779.67 487.25,-1779.67 487.25,-1783.62 483.29,-1787.58 479.33,-1787.58"/>
<text text-anchor="middle" x="405.75" y="-1770.28" font-family="Arial" font-size="14.00" fill="#cfffac">src/web/assets/main.css</text>
</g>
<!-- src/web/main.js -->
<g id="node32" class="node">
<title>src/web/main.js</title>
<path fill="none" stroke="#c6c5fe" d="M161.08,-1808.58C161.08,-1808.58 67.17,-1808.58 67.17,-1808.58 63.21,-1808.58 59.25,-1804.62 59.25,-1800.67 59.25,-1800.67 59.25,-1792.75 59.25,-1792.75 59.25,-1788.79 63.21,-1784.83 67.17,-1784.83 67.17,-1784.83 161.08,-1784.83 161.08,-1784.83 165.04,-1784.83 169,-1788.79 169,-1792.75 169,-1792.75 169,-1800.67 169,-1800.67 169,-1804.62 165.04,-1808.58 161.08,-1808.58"/>
<text text-anchor="middle" x="114.12" y="-1791.28" font-family="Arial" font-size="14.00" fill="#c6c5fe">src/web/main.js</text>
</g>
<!-- src/web/main.js&#45;&gt;src/web/App.vue -->
<g id="edge111" class="edge">
<title>src/web/main.js&#45;&gt;src/web/App.vue</title>
<path fill="none" stroke="#757575" d="M169.26,-1800.63C216.45,-1804.05 285.13,-1809.03 336.15,-1812.73"/>
<polygon fill="#757575" stroke="#757575" points="335.67,-1816.21 345.9,-1813.44 336.18,-1809.23 335.67,-1816.21"/>
</g>
<!-- src/web/main.js&#45;&gt;src/web/assets/main.css -->
<g id="edge112" class="edge">
<title>src/web/main.js&#45;&gt;src/web/assets/main.css</title>
<path fill="none" stroke="#757575" d="M169.26,-1792.78C209.42,-1789.87 265.15,-1785.83 312.31,-1782.41"/>
<polygon fill="#757575" stroke="#757575" points="312.55,-1785.9 322.27,-1781.69 312.05,-1778.92 312.55,-1785.9"/>
</g>
<!-- tests/unit/core/register/fpRegisterSync.test.js -->
<g id="node33" class="node">
<title>tests/unit/core/register/fpRegisterSync.test.js</title>
<path fill="none" stroke="#c6c5fe" d="M539.33,-109.58C539.33,-109.58 272.17,-109.58 272.17,-109.58 268.21,-109.58 264.25,-105.62 264.25,-101.67 264.25,-101.67 264.25,-93.75 264.25,-93.75 264.25,-89.79 268.21,-85.83 272.17,-85.83 272.17,-85.83 539.33,-85.83 539.33,-85.83 543.29,-85.83 547.25,-89.79 547.25,-93.75 547.25,-93.75 547.25,-101.67 547.25,-101.67 547.25,-105.62 543.29,-109.58 539.33,-109.58"/>
<text text-anchor="middle" x="405.75" y="-92.28" font-family="Arial" font-size="14.00" fill="#c6c5fe">tests/unit/core/register/fpRegisterSync.test.js</text>
</g>
<!-- tests/unit/core/register/fpRegisterSync.test.js&#45;&gt;src/core/core.mjs -->
<g id="edge113" class="edge">
<title>tests/unit/core/register/fpRegisterSync.test.js&#45;&gt;src/core/core.mjs</title>
<path fill="none" stroke="#757575" d="M411.41,-110.01C429.51,-157.85 496.59,-336.22 547.25,-484.71 597,-630.52 651.62,-807.56 670.64,-869.77"/>
<polygon fill="#757575" stroke="#757575" points="667.25,-870.65 673.51,-879.19 673.94,-868.6 667.25,-870.65"/>
</g>
<!-- tests/unit/core/register/fpRegisterSync.test.js&#45;&gt;src/core/utils/bigint.mjs -->
<g id="edge115" class="edge">
<title>tests/unit/core/register/fpRegisterSync.test.js&#45;&gt;src/core/utils/bigint.mjs</title>
<path fill="none" stroke="#757575" d="M440.38,-85.38C475.51,-73.09 532.46,-54.76 583.25,-45.71 741.66,-17.47 783.59,-21.71 944.5,-21.71 944.5,-21.71 944.5,-21.71 2050.38,-21.71 2247.05,-21.71 2315.09,39.72 2492.25,-45.71 2558.07,-77.45 2607.37,-152.92 2628.82,-190.56"/>
<polygon fill="#757575" stroke="#757575" points="2625.7,-192.16 2633.61,-199.2 2631.82,-188.76 2625.7,-192.16"/>
</g>
<!-- tests/unit/core/register/fpRegisterSync.test.js&#45;&gt;src/core/register/fpRegisterSync.mjs -->
<g id="edge114" class="edge">
<title>tests/unit/core/register/fpRegisterSync.test.js&#45;&gt;src/core/register/fpRegisterSync.mjs</title>
<path fill="none" stroke="#757575" d="M547.71,-97.71C656.19,-97.71 809.83,-97.71 944.5,-97.71 944.5,-97.71 944.5,-97.71 1229.12,-97.71 1653.72,-97.71 1773.62,-87.93 2176.25,-222.71 2233.25,-241.79 2292.74,-279.99 2325.59,-302.96"/>
<polygon fill="#757575" stroke="#757575" points="2323.48,-305.75 2333.66,-308.68 2327.53,-300.04 2323.48,-305.75"/>
</g>
<!-- tests/unit/core/register/registerLookup.test.js -->
<g id="node34" class="node">
<title>tests/unit/core/register/registerLookup.test.js</title>
<path fill="none" stroke="#c6c5fe" d="M538.21,-517.58C538.21,-517.58 273.29,-517.58 273.29,-517.58 269.33,-517.58 265.38,-513.62 265.38,-509.67 265.38,-509.67 265.38,-501.75 265.38,-501.75 265.38,-497.79 269.33,-493.83 273.29,-493.83 273.29,-493.83 538.21,-493.83 538.21,-493.83 542.17,-493.83 546.12,-497.79 546.12,-501.75 546.12,-501.75 546.12,-509.67 546.12,-509.67 546.12,-513.62 542.17,-517.58 538.21,-517.58"/>
<text text-anchor="middle" x="405.75" y="-500.28" font-family="Arial" font-size="14.00" fill="#c6c5fe">tests/unit/core/register/registerLookup.test.js</text>
</g>
<!-- tests/unit/core/register/registerLookup.test.js&#45;&gt;src/core/core.mjs -->
<g id="edge116" class="edge">
<title>tests/unit/core/register/registerLookup.test.js&#45;&gt;src/core/core.mjs</title>
<path fill="none" stroke="#757575" d="M415.15,-517.71C453.54,-572.56 612.48,-799.63 662.49,-871.08"/>
<polygon fill="#757575" stroke="#757575" points="659.58,-873.03 668.18,-879.22 665.32,-869.02 659.58,-873.03"/>
</g>
<!-- tests/unit/core/register/registerLookup.test.js&#45;&gt;src/core/register/registerLookup.mjs -->
<g id="edge117" class="edge">
<title>tests/unit/core/register/registerLookup.test.js&#45;&gt;src/core/register/registerLookup.mjs</title>
<path fill="none" stroke="#757575" d="M415.26,-493.44C438.05,-461.83 504.11,-377.95 583.25,-347.71 789.89,-268.73 863.27,-308.54 1081,-347.71 1337.37,-393.83 1623.65,-531.47 1719.83,-580.29"/>
<polygon fill="#757575" stroke="#757575" points="1717.99,-583.28 1728.49,-584.71 1721.17,-577.05 1717.99,-583.28"/>
</g>
</g>
</svg>
