<?xml version="1.0" encoding="UTF-8" standalone="no"?>
<svg
   width="25.4mm"
   height="42.9mm"
   version="1.1"
   id="svg177"
   sodipodi:docname="esp32c3devkit2.svg"
   inkscape:version="1.4.3 (fcd0343856, 2026-01-01)"
   xml:space="preserve"
   xmlns:inkscape="http://www.inkscape.org/namespaces/inkscape"
   xmlns:sodipodi="http://sodipodi.sourceforge.net/DTD/sodipodi-0.dtd"
   xmlns="http://www.w3.org/2000/svg"
   xmlns:svg="http://www.w3.org/2000/svg"><defs
     id="defs177" /><sodipodi:namedview
     id="namedview177"
     pagecolor="#ffffff"
     bordercolor="#000000"
     borderopacity="0.25"
     inkscape:showpageshadow="2"
     inkscape:pageopacity="0.0"
     inkscape:pagecheckerboard="0"
     inkscape:deskcolor="#d1d1d1"
     inkscape:document-units="mm"
     inkscape:zoom="2.5337649"
     inkscape:cx="126.68894"
     inkscape:cy="49.531036"
     inkscape:window-width="1374"
     inkscape:window-height="831"
     inkscape:window-x="0"
     inkscape:window-y="0"
     inkscape:window-maximized="1"
     inkscape:current-layer="g9" /><g
     transform="matrix(0.0984,0,0,0.0984,34.160463,83.458147)"
     id="g148"><text
       x="-2320.8396"
       y="-202.73961"
       fill="#000000"
       font-size="40px"
       id="text1" /><rect
       x="-348"
       y="-707"
       width="976"
       height="1494"
       ry="12.3"
       fill="#4d4d4d"
       fill-opacity="0.996"
       id="rect1" /><text
       xml:space="preserve"
       style="font-size:47.5623px;line-height:0;text-align:start;writing-mode:lr-tb;direction:ltr;text-anchor:start;fill:#000000;stroke-width:11.8906"
       x="-320.63583"
       y="47.277023"
       id="text179-1"
       transform="scale(0.85467734,1.1700322)"
       inkscape:transform-center-x="-1.1162942"
       inkscape:transform-center-y="4.1861034"><tspan
         sodipodi:role="line"
         id="tspan178-8"
         style="font-size:47.5623px;line-height:0;fill:#ffffff;fill-opacity:1;stroke-width:11.8906"
         x="-320.63583"
         y="47.277023">GPIO7</tspan></text><rect
       x="-114"
       y="-842"
       width="507"
       height="640"
       fill="#383838"
       fill-opacity="0.996"
       id="rect2" /><path
       d="m 333,-713 v -107 h -61.3 v 66.6 h -69.3 v -65.5 h -67.5 v 65.2 H 65.2 v -65.9 h -129 v 119"
       fill="none"
       stroke="#5c5c5c"
       stroke-linecap="round"
       stroke-width="14.9"
       id="path2" /><path
       d="M 1.01,-701 V -820"
       fill="none"
       stroke="#5c5c5c"
       stroke-linecap="round"
       stroke-width="14.9"
       id="path3" /><ellipse
       transform="scale(-1,1)"
       cx="63.799999"
       cy="-701"
       rx="7.48"
       ry="7.0300002"
       fill="#aa8800"
       fill-opacity="0.996"
       id="ellipse3" /><ellipse
       transform="scale(-1,1)"
       cx="-0.98500001"
       cy="-701"
       rx="7.48"
       ry="7.0300002"
       fill="#aa8800"
       fill-opacity="0.996"
       id="ellipse4" /><rect
       x="-92.599998"
       y="-689"
       width="465"
       height="474"
       fill="#c7c7c7"
       id="rect4" /><g
       fill="#808080"
       id="g9"><text
         x="-94.383064"
         y="-214.2782"
         font-family="sans-serif"
         font-size="52.8244px"
         id="text8"
         transform="matrix(1.7613552,0,0,3.1449845,91.0532,266.90176)"
         style="white-space:pre;inline-size:278.384;display:inline;stroke-width:1.05649"
         xml:space="preserve"><tspan
           x="-94.383064"
           y="-214.2782"
           id="tspan5">ESP32-C3</tspan></text><text
         xml:space="preserve"
         style="font-size:47.5623px;line-height:0;text-align:start;writing-mode:lr-tb;direction:ltr;text-anchor:start;fill:#000000;stroke-width:11.8906"
         x="-314.93292"
         y="-533.58478"
         id="text178"
         transform="scale(0.85467734,1.1700322)"><tspan
           sodipodi:role="line"
           id="tspan177"
           style="font-size:47.5623px;line-height:0;fill:#ffffff;fill-opacity:1;stroke-width:11.8906"
           x="-314.93292"
           y="-533.58478">GND</tspan></text><text
         xml:space="preserve"
         style="font-size:47.5623px;line-height:0;text-align:start;writing-mode:lr-tb;direction:ltr;text-anchor:start;fill:#000000;stroke-width:11.8906"
         x="-321.58801"
         y="-450.84079"
         id="text178-6"
         transform="scale(0.85467734,1.1700322)"><tspan
           sodipodi:role="line"
           id="tspan177-7"
           style="font-size:47.5623px;line-height:0;fill:#ffffff;fill-opacity:1;stroke-width:11.8906"
           x="-321.58801"
           y="-450.84079">3v3</tspan></text><text
         xml:space="preserve"
         style="font-size:47.5623px;line-height:0;text-align:start;writing-mode:lr-tb;direction:ltr;text-anchor:start;fill:#000000;stroke-width:11.8906"
         x="-312.90451"
         y="-285.40646"
         id="text178-2"
         transform="scale(0.85467734,1.1700322)"
         inkscape:transform-center-x="-1.1162942"
         inkscape:transform-center-y="4.1861034"><tspan
           sodipodi:role="line"
           id="tspan177-9"
           style="font-size:47.5623px;line-height:0;fill:#ffffff;fill-opacity:1;stroke-width:11.8906"
           x="-312.90451"
           y="-285.40646">RST</tspan></text><g
         id="g9-1"
         transform="translate(-356.08406,575.16652)" /><text
         xml:space="preserve"
         style="font-size:47.5623px;line-height:0;text-align:start;writing-mode:lr-tb;direction:ltr;text-anchor:start;fill:#000000;stroke-width:11.8906"
         x="-320.63583"
         y="-198.89354"
         id="text179"
         transform="scale(0.85467734,1.1700322)"
         inkscape:transform-center-x="-1.1162942"
         inkscape:transform-center-y="4.1861034"><tspan
           sodipodi:role="line"
           id="tspan178"
           style="font-size:47.5623px;line-height:0;fill:#ffffff;fill-opacity:1;stroke-width:11.8906"
           x="-320.63583"
           y="-198.89354">GPIO4</tspan></text><text
         xml:space="preserve"
         style="font-size:47.5623px;line-height:0;text-align:start;writing-mode:lr-tb;direction:ltr;text-anchor:start;fill:#000000;stroke-width:11.8906"
         x="-320.63583"
         y="-119.36577"
         id="text179-3"
         transform="scale(0.85467734,1.1700322)"
         inkscape:transform-center-x="-1.1162942"
         inkscape:transform-center-y="4.1861034"><tspan
           sodipodi:role="line"
           id="tspan178-6"
           style="font-size:47.5623px;line-height:0;fill:#ffffff;fill-opacity:1;stroke-width:11.8906"
           x="-320.63583"
           y="-119.36577">GPIO5</tspan></text><text
         xml:space="preserve"
         style="font-size:47.5623px;line-height:0;text-align:start;writing-mode:lr-tb;direction:ltr;text-anchor:start;fill:#000000;stroke-width:11.8906"
         x="-320.63583"
         y="-38.570332"
         id="text179-6"
         transform="scale(0.85467734,1.1700322)"
         inkscape:transform-center-x="-1.1162942"
         inkscape:transform-center-y="4.1861034"><tspan
           sodipodi:role="line"
           id="tspan178-2"
           style="font-size:47.5623px;line-height:0;fill:#ffffff;fill-opacity:1;stroke-width:11.8906"
           x="-320.63583"
           y="-38.570332">GPIO6</tspan></text><text
         xml:space="preserve"
         style="font-size:121.951px;writing-mode:lr-tb;direction:ltr;fill:#000000;stroke-width:10.1626"
         x="-0.21892506"
         y="-449.07031"
         id="text3"><tspan
           id="tspan3"
           style="stroke-width:10.1626"
           sodipodi:role="line" /></text></g><g
       fill="#f2f2f2"
       id="g12"><rect
         x="131"
         y="10.6"
         width="97.900002"
         height="127"
         ry="0.727"
         id="rect9" /><rect
         x="-21.700001"
         y="-35.5"
         width="97.900002"
         height="39.5"
         ry="0.22499999"
         id="rect10" /><rect
         x="-21.700001"
         y="54.599998"
         width="97.900002"
         height="39.5"
         ry="0.22499999"
         id="rect11" /><rect
         x="-21.700001"
         y="145"
         width="97.900002"
         height="39.5"
         ry="0.22499999"
         id="rect12" /></g><rect
       x="30.9"
       y="-42.200001"
       width="135"
       height="233"
       ry="1.33"
       fill="#1a1a1a"
       id="rect13" /><rect
       x="327"
       y="-93.099998"
       width="133"
       height="136"
       ry="0.99800003"
       fill="#ececec"
       id="rect14" /><rect
       x="340"
       y="-80"
       width="107"
       height="110"
       ry="55"
       fill="#e3dedb"
       id="rect15" /><text
       x="333.82767"
       y="-99.657059"
       fill="#000000"
       font-size="53.2767px"
       id="text15"
       transform="scale(0.94462235,1.0586241)"
       style="stroke-width:0.944622"><tspan
         fill="#ffffff"
         id="tspan15"
         style="stroke-width:0.944622">GPIO8</tspan></text><rect
       x="361"
       y="554"
       width="126"
       height="215"
       ry="2.8599999"
       fill="#c7c7c7"
       id="rect16" /><rect
       x="368"
       y="580"
       width="112"
       height="163"
       ry="57.700001"
       fill="#1a1a1a"
       id="rect17" /><text
       x="374.56619"
       y="524.76233"
       fill="#000000"
       font-size="56.4px"
       id="text17"><tspan
         x="374.56619"
         y="524.76233"
         fill="#ffffff"
         font-weight="bold"
         id="tspan17">RST</tspan></text><rect
       x="-196"
       y="554"
       width="126"
       height="215"
       ry="2.8599999"
       fill="#c7c7c7"
       id="rect18" /><rect
       x="-189"
       y="580"
       width="112"
       height="163"
       ry="57.700001"
       fill="#1a1a1a"
       id="rect19" /><text
       x="-215.77779"
       y="524.76233"
       fill="#000000"
       font-size="56.4px"
       id="text19"><tspan
         x="-215.77779"
         y="524.76233"
         fill="#ffffff"
         font-weight="bold"
         id="tspan19">BOOT</tspan></text><g
       fill="#cccccc"
       fill-rule="evenodd"
       id="g27"><path
         d="M 97.1,634 H 117 V 590.9 H 97.1 Z"
         id="path19" /><path
         d="m 186,634 h 19.9 V 590.9 H 186 Z"
         id="path20" /><path
         d="m 127,634 h 9.2 V 590.9 H 127 Z"
         id="path21" /><path
         d="m 147,634 h 9.2 V 590.9 H 147 Z"
         id="path22" /><path
         d="m 167,634 h 9.2 V 590.9 H 167 Z"
         id="path23" /><path
         d="m 68.4,716 c 0,-31.8 -47.5,-31.8 -47.5,0 v 9.23 c 0,31.8 47.5,31.8 47.5,0 V 716"
         id="path24" /><path
         d="m 283,716 c 0,-31.8 -47.5,-31.8 -47.5,0 v 9.23 c 0,31.8 47.5,31.8 47.5,0 V 716"
         id="path25" /><path
         d="m 68.4,602 c 0,-31.8 -47.5,-31.8 -47.5,0 v 9.23 c 0,31.8 47.5,31.8 47.5,0 V 602"
         id="path26" /><path
         d="m 283,602 c 0,-31.8 -47.5,-31.8 -47.5,0 v 9.23 c 0,31.8 47.5,31.8 47.5,0 V 602"
         id="path27" /></g><g
       fill="none"
       stroke="#ffffff"
       stroke-linecap="round"
       stroke-miterlimit="10"
       stroke-width="0.779"
       id="g69"><path
         d="m 27.7,803 v 3.12"
         id="path28" /><path
         d="m 35.4,805 v 0.937"
         id="path29" /><path
         d="m 36.6,805 v 0.937"
         id="path30" /><path
         d="M 36.9,634 V 785"
         id="path31" /><path
         d="m 44.6,790 v -2.11"
         id="path32" /><path
         d="m 45.2,788 v 2.11"
         id="path33" /><path
         d="M 47.6,634 V 788"
         id="path34" /><path
         d="m 48.2,790 v -2.11"
         id="path35" /><path
         d="m 50.7,788 v 18.4"
         id="path36" /><path
         d="m 255,790 7.08,9.02"
         id="path37" /><path
         d="m 259,790 9.2,15.4"
         id="path38" /><path
         d="m 268,790 7.62,12.8"
         id="path39" /><path
         d="m 258,790 4.2,9.02"
         id="path40" /><path
         d="m 253,788 v 18.4"
         id="path41" /><path
         d="m 255,790 v -2.11"
         id="path42" /><path
         d="M 256,788 V 634"
         id="path43" /><path
         d="m 258,790 v -2.11"
         id="path44" /><path
         d="m 259,790 v -2.11"
         id="path45" /><path
         d="M 267,785 V 634"
         id="path46" /><path
         d="m 267,805 v 0.937"
         id="path47" /><path
         d="m 268,805 v 0.937"
         id="path48" /><path
         d="m 276,803 v 3.12"
         id="path49" /><path
         d="m 45.2,790 -4.12,9.02"
         id="path50" /><path
         d="m 35.4,790 -7.7,12.8"
         id="path51" /><path
         d="m 44.6,790 -9.2,15.4"
         id="path52" /><path
         d="m 48.2,790 -7.08,9.02"
         id="path53" /><path
         d="M 253,806 H 51"
         id="path54" /><path
         d="m 27.7,806 h 8.94"
         id="path55" /><path
         d="m 267,806 h 8.9"
         id="path56" /><path
         d="m 268,805 h -1.26"
         id="path57" /><path
         d="M 36.6,805 H 35.34"
         id="path58" /><path
         d="m 50.7,803 h 202"
         id="path59" /><path
         d="M 253,790 H 51"
         id="path60" /><path
         d="m 259,790 h -3.58"
         id="path61" /><path
         d="M 48.2,790 H 44.62"
         id="path62" /><path
         d="M 50.7,788 H 36.5"
         id="path63" /><path
         d="m 253,788 h 14.2"
         id="path64" /><path
         d="M 267,785 H 37"
         id="path65" /><path
         d="m 274,735 h -7.62"
         id="path66" /><path
         d="m 36.9,634 h 230"
         id="path67" /><path
         d="m 267,785 c 0,1.95 0.52,3.82 1.56,5.54"
         id="path68" /><path
         d="m 35.4,790 c 1.01,-1.72 1.56,-3.59 1.56,-5.54"
         id="path69" /></g><path
       d="m 36.9,634 h 230 l 0.429,154 8.73,15.3 v 3.09 l -8.9,3.4e-4 -14,-18.4 v 18.4 h -202 v -18.4 l -15.3,18.4 -7.68,-3.4e-4 v -3.09 l 8.77,-15.3 z"
       fill="#9d9d9d"
       id="path70" /><rect
       x="-21.6"
       y="242"
       width="158"
       height="158"
       ry="0"
       fill="#1a1a1a"
       id="rect70" /><text
       transform="scale(0.998,1)"
       x="-1.8370414"
       y="333.28836"
       fill="#333333"
       font-size="33.8px"
       stroke-width="2.12"
       id="text70"><tspan
         x="-1.8370414"
         y="333.28836"
         fill="#333333"
         stroke-width="2.12"
         id="tspan70">CP2102</tspan></text><path
       d="m -199,406 h 26 v -26.1 h -26 z"
       fill="#cccccc"
       fill-rule="evenodd"
       id="path71" /><path
       d="m -199,357 h 26 v -26.1 h -26 z"
       fill="#cccccc"
       fill-rule="evenodd"
       opacity="0.992"
       id="path72" /><g
       fill="none"
       stroke="#ffffff"
       stroke-linecap="round"
       stroke-miterlimit="10"
       stroke-width="6.13"
       id="g83"><path
         d="m -204,417 h 39.7"
         id="path73" /><path
         d="M -165,417 V 385.8"
         id="path74" /><path
         d="M -164,360 V 322.5"
         id="path75" /><path
         d="m -164,322 v -3.12"
         id="path76" /><path
         d="m -164,319 h -45.9"
         id="path77" /><path
         d="m -211,320 v 36.7"
         id="path78" /><path
         d="m -211,383 v 33.5"
         id="path79" /><path
         d="m -211,417 h 10.1"
         id="path80" /><path
         d="m -200,376 h 28"
         id="path81" /><path
         d="m -172,375 -15.5,-15.6"
         id="path82" /><path
         d="m -187,360 -14,14.1"
         id="path83" /></g><g
       fill="#cccccc"
       fill-rule="evenodd"
       id="g112"><path
         d="m 98.6,262 h 9.2 v -29.2 h -9.2 z"
         id="path84" /><path
         d="m 83.2,262 h 9.2 v -29.2 h -9.2 z"
         id="path85" /><path
         d="m 67.9,262 h 9.2 v -29.2 h -9.2 z"
         id="path86" /><path
         d="m 52.6,262 h 9.2 v -29.2 h -9.2 z"
         id="path87" /><path
         d="m 37.3,262 h 9.2 v -29.2 h -9.2 z"
         id="path88" /><path
         d="m 22,262 h 9.2 V 232.8 H 22 Z"
         id="path89" /><path
         d="m 6.71,262 h 9.2 v -29.2 h -9.2 z"
         id="path90" /><path
         d="m 6.71,410 h 9.2 v -29.2 h -9.2 z"
         id="path91" /><path
         d="m 22,410 h 9.2 V 380.8 H 22 Z"
         id="path92" /><path
         d="m 37.3,410 h 9.2 v -29.2 h -9.2 z"
         id="path93" /><path
         d="m 52.6,410 h 9.2 v -29.2 h -9.2 z"
         id="path94" /><path
         d="m 67.9,410 h 9.2 v -29.2 h -9.2 z"
         id="path95" /><path
         d="m 83.2,410 h 9.2 v -29.2 h -9.2 z"
         id="path96" /><path
         d="m 98.6,410 h 9.2 v -29.2 h -9.2 z"
         id="path97" /><path
         d="m -30.8,280 h 29.1 v -9.23 h -29.1 z"
         id="path98" /><path
         d="m -30.8,295 h 29.1 v -9.23 h -29.1 z"
         id="path99" /><path
         d="m -30.8,311 h 29.1 v -9.23 h -29.1 z"
         id="path100" /><path
         d="m -30.8,326 h 29.1 v -9.23 h -29.1 z"
         id="path101" /><path
         d="m -30.8,341 h 29.1 v -9.23 h -29.1 z"
         id="path102" /><path
         d="m -30.8,357 h 29.1 v -9.23 h -29.1 z"
         id="path103" /><path
         d="m -30.8,372 h 29.1 v -9.23 h -29.1 z"
         id="path104" /><path
         d="m 116,372 h 29.1 v -9.23 H 116 Z"
         id="path105" /><path
         d="m 116,357 h 29.1 v -9.23 H 116 Z"
         id="path106" /><path
         d="m 116,341 h 29.1 v -9.23 H 116 Z"
         id="path107" /><path
         d="m 116,326 h 29.1 v -9.23 H 116 Z"
         id="path108" /><path
         d="m 116,311 h 29.1 v -9.23 H 116 Z"
         id="path109" /><path
         d="m 116,295 h 29.1 v -9.23 H 116 Z"
         id="path110" /><path
         d="m 116,280 h 29.1 v -9.23 H 116 Z"
         id="path111" /><path
         d="m 6.71,372 h 101 V 271 h -101 z"
         id="path112" /></g><g
       fill="none"
       stroke="#ffffff"
       stroke-linecap="round"
       stroke-miterlimit="10"
       stroke-width="3.9"
       id="g117"><path
         d="M 136,263 V 401"
         id="path113" /><path
         d="M 136,401 H -22"
         id="path114" /><path
         d="M -21.6,401 V 243"
         id="path115" /><path
         d="m -21.6,242 h 137"
         id="path116" /><path
         d="m 116,242 20.5,20.6"
         id="path117" /></g><rect
       x="-21.6"
       y="242"
       width="158"
       height="158"
       ry="0"
       fill="#1a1a1a"
       id="rect117" /><rect
       x="-203"
       y="341"
       width="32.299999"
       height="56.299999"
       ry="0"
       fill="#e3dedb"
       opacity="0.992"
       id="rect118" /><g
       fill="#ffd700"
       fill-rule="evenodd"
       id="g147"><path
         d="m -283,-643 c 0,-37.8 -56.5,-37.8 -56.5,0 0,37.8 56.5,37.8 56.5,0"
         id="GND0" /><path
         d="m -283,-546 c 0,-37.8 -56.5,-37.8 -56.5,0 0,37.8 56.5,37.8 56.5,0"
         id="path119" /><path
         d="m -283,-448 c 0,-37.8 -56.5,-37.8 -56.5,0 0,37.8 56.5,37.8 56.5,0"
         id="path120" /><path
         d="m -283,-350 c 0,-37.8 -56.5,-37.8 -56.5,0 0,37.8 56.5,37.8 56.5,0"
         id="path121" /><path
         d="m -283,-253 c 0,-37.8 -56.5,-37.8 -56.5,0 0,37.8 56.5,37.8 56.5,0"
         id="path122" /><path
         d="m -283,-155 c 0,-37.8 -56.5,-37.8 -56.5,0 0,37.8 56.5,37.8 56.5,0"
         id="GPIO5" /><path
         d="m -283,-57.6 c 0,-37.8 -56.5,-37.8 -56.5,0 0,37.8 56.5,37.8 56.5,0"
         id="path124" /><path
         d="m -283,40 c 0,-37.8 -56.5,-37.8 -56.5,0 0,37.8 56.5,37.8 56.5,0"
         id="path125" /><path
         d="m -283,138 c 0,-37.8 -56.5,-37.8 -56.5,0 0,37.8 56.5,37.8 56.5,0"
         id="path126" /><path
         d="m -283,235 c 0,-37.8 -56.5,-37.8 -56.5,0 0,37.8 56.5,37.8 56.5,0"
         id="path127" /><path
         d="m -283,333 c 0,-37.8 -56.5,-37.8 -56.5,0 0,37.8 56.5,37.8 56.5,0"
         id="path128" /><path
         d="m -283,430 c 0,-37.8 -56.5,-37.8 -56.5,0 0,37.8 56.5,37.8 56.5,0"
         id="path129" /><path
         d="m -283,528 c 0,-37.8 -56.5,-37.8 -56.5,0 0,37.8 56.5,37.8 56.5,0"
         id="path130" /><path
         d="m -283,626 c 0,-37.8 -56.5,-37.8 -56.5,0 0,37.8 56.5,37.8 56.5,0"
         id="path131" /><path
         d="m 621,-643 c 0,-37.8 -56.5,-37.8 -56.5,0 0,37.8 56.5,37.8 56.5,0"
         id="path133" /><path
         d="m 621,-546 c 0,-37.8 -56.5,-37.8 -56.5,0 0,37.8 56.5,37.8 56.5,0"
         id="path134" /><path
         d="m 621,-448 c 0,-37.8 -56.5,-37.8 -56.5,0 0,37.8 56.5,37.8 56.5,0"
         id="path135" /><path
         d="m 621,-350 c 0,-37.8 -56.5,-37.8 -56.5,0 0,37.8 56.5,37.8 56.5,0"
         id="path136" /><path
         d="m 621,-253 c 0,-37.8 -56.5,-37.8 -56.5,0 0,37.8 56.5,37.8 56.5,0"
         id="path137" /><path
         d="m 621,-155 c 0,-37.8 -56.5,-37.8 -56.5,0 0,37.8 56.5,37.8 56.5,0"
         id="path138" /><path
         d="m 621,-57.6 c 0,-37.8 -56.5,-37.8 -56.5,0 0,37.8 56.5,37.8 56.5,0"
         id="path139" /><path
         d="m 621,40 c 0,-37.8 -56.5,-37.8 -56.5,0 0,37.8 56.5,37.8 56.5,0"
         id="path140" /><path
         d="m 621,138 c 0,-37.8 -56.5,-37.8 -56.5,0 0,37.8 56.5,37.8 56.5,0"
         id="path141" /><path
         d="m 621,235 c 0,-37.8 -56.5,-37.8 -56.5,0 0,37.8 56.5,37.8 56.5,0"
         id="path142" /><path
         d="m 621,333 c 0,-37.8 -56.5,-37.8 -56.5,0 0,37.8 56.5,37.8 56.5,0"
         id="path143" /><path
         d="m 621,430 c 0,-37.8 -56.5,-37.8 -56.5,0 0,37.8 56.5,37.8 56.5,0"
         id="path144" /><path
         d="m 621,528 c 0,-37.8 -56.5,-37.8 -56.5,0 0,37.8 56.5,37.8 56.5,0"
         id="path145" /><path
         d="m 621,626 c 0,-37.8 -56.5,-37.8 -56.5,0 0,37.8 56.5,37.8 56.5,0"
         id="path146" /><path
         d="m 621,723 c 0,-37.8 -56.5,-37.8 -56.5,0 0,37.8 56.5,37.8 56.5,0"
         id="path147" /></g><text
       xml:space="preserve"
       style="font-size:47.5623px;line-height:0;text-align:start;writing-mode:lr-tb;direction:ltr;text-anchor:start;fill:#000000;stroke-width:11.8906"
       x="-321.58801"
       y="-369.83994"
       id="text178-3"
       transform="scale(0.85467734,1.1700322)"><tspan
         sodipodi:role="line"
         id="tspan177-5"
         style="font-size:47.5623px;line-height:0;fill:#ffffff;fill-opacity:1;stroke-width:11.8906"
         x="-321.58801"
         y="-369.83994">3v3</tspan></text><text
       xml:space="preserve"
       style="font-size:47.5623px;line-height:0;text-align:start;writing-mode:lr-tb;direction:ltr;text-anchor:start;fill:#000000;stroke-width:11.8906"
       x="-320.63583"
       y="124.03628"
       id="text179-9"
       transform="scale(0.85467734,1.1700322)"
       inkscape:transform-center-x="-1.1162942"
       inkscape:transform-center-y="4.1861034"><tspan
         sodipodi:role="line"
         id="tspan178-20"
         style="font-size:47.5623px;line-height:0;fill:#ffffff;fill-opacity:1;stroke-width:11.8906"
         x="-320.63583"
         y="124.03628">GND</tspan></text><text
       xml:space="preserve"
       style="font-size:47.5623px;line-height:0;text-align:start;writing-mode:lr-tb;direction:ltr;text-anchor:start;fill:#000000;stroke-width:11.8906"
       x="-320.63583"
       y="214.12662"
       id="text179-9-3"
       transform="scale(0.85467734,1.1700322)"
       inkscape:transform-center-x="-1.1162942"
       inkscape:transform-center-y="4.1861034"><tspan
         sodipodi:role="line"
         id="tspan178-20-7"
         style="font-size:47.5623px;line-height:0;fill:#ffffff;fill-opacity:1;stroke-width:11.8906"
         x="-320.63583"
         y="214.12662">GPIO8</tspan></text><text
       xml:space="preserve"
       style="font-size:47.5623px;line-height:0;text-align:start;writing-mode:lr-tb;direction:ltr;text-anchor:start;fill:#000000;stroke-width:11.8906"
       x="-404.17935"
       y="-188.85684"
       id="text179-9-3-9"
       transform="matrix(0.02390241,-0.854343,1.1695746,0.03272181,0,0)"
       inkscape:transform-center-x="-4.2156791"
       inkscape:transform-center-y="-0.99878655"><tspan
         sodipodi:role="line"
         id="tspan178-20-7-2"
         style="font-size:47.5623px;line-height:0;fill:#ffffff;fill-opacity:1;stroke-width:11.8906"
         x="-404.17935"
         y="-188.85684">9</tspan></text><text
       xml:space="preserve"
       style="font-size:47.5623px;line-height:0;text-align:start;writing-mode:lr-tb;direction:ltr;text-anchor:start;fill:#000000;stroke-width:11.8906"
       x="-527.92029"
       y="-186.96878"
       id="text179-9-3-9-3"
       transform="matrix(0.02390241,-0.854343,1.1695746,0.03272181,0,0)"
       inkscape:transform-center-x="-4.2156791"
       inkscape:transform-center-y="-0.99878655"><tspan
         sodipodi:role="line"
         id="tspan178-20-7-2-6"
         style="font-size:47.5623px;line-height:0;fill:#ffffff;fill-opacity:1;stroke-width:11.8906"
         x="-527.92029"
         y="-186.96878">5v5</tspan></text><text
       xml:space="preserve"
       style="font-size:47.5623px;line-height:0;text-align:start;writing-mode:lr-tb;direction:ltr;text-anchor:start;fill:#000000;stroke-width:11.8906"
       x="-657.59137"
       y="-184.31871"
       id="text179-9-3-9-3-2"
       transform="matrix(0.02390241,-0.854343,1.1695746,0.03272181,0,0)"
       inkscape:transform-center-x="-4.2156791"
       inkscape:transform-center-y="-0.99878655"><tspan
         sodipodi:role="line"
         id="tspan178-20-7-2-6-9"
         style="font-size:47.5623px;line-height:0;fill:#ffffff;fill-opacity:1;stroke-width:11.8906"
         x="-657.59137"
         y="-184.31871">5v5</tspan></text></g><g
     fill="#ffffff"
     font-family="sans-serif"
     id="g177"
     transform="translate(-0.27235754,-13.674604)"><text
       transform="rotate(-90)"
       font-size="4.44px"
       id="text174"
       x="-4.7442503"
       y="-0.27907357"><tspan
         x="-163.87047"
         y="10.847651"
         id="tspan148">GND</tspan></text><text
       transform="rotate(-90)"
       font-size="4px"
       id="text177" /></g><text
     xml:space="preserve"
     style="font-size:4.68013px;line-height:0;text-align:start;writing-mode:lr-tb;direction:ltr;text-anchor:start;fill:#000000;stroke-width:1.17004"
     x="88.18058"
     y="34.890068"
     id="text178-3-4"
     transform="scale(0.85467733,1.1700322)"><tspan
       sodipodi:role="line"
       id="tspan177-5-7"
       style="font-size:4.68013px;line-height:0;fill:#ffffff;fill-opacity:1;stroke-width:1.17004"
       x="88.18058"
       y="34.890068">GPIO1</tspan></text><text
     xml:space="preserve"
     style="font-size:4.68013px;line-height:0;text-align:start;writing-mode:lr-tb;direction:ltr;text-anchor:start;fill:#000000;stroke-width:1.17004"
     x="-137.80002"
     y="76.69313"
     id="text179-9-8"
     transform="matrix(0.01817904,-0.85448397,1.1697675,0.02488666,0,0)"
     inkscape:transform-center-x="-4.1701346"
     inkscape:transform-center-y="-1.0262342"><tspan
       sodipodi:role="line"
       id="tspan178-20-4"
       style="font-size:4.68013px;line-height:0;fill:#ffffff;fill-opacity:1;stroke-width:1.17004"
       x="-137.80002"
       y="76.69313">GND</tspan></text><text
     xml:space="preserve"
     style="font-size:4.68013px;line-height:0;text-align:start;writing-mode:lr-tb;direction:ltr;text-anchor:start;fill:#000000;stroke-width:1.17004"
     x="-151.52423"
     y="72.65979"
     id="text179-9-3-5"
     transform="matrix(-0.01516364,-0.85454283,1.169848,-0.02075865,0,0)"
     inkscape:transform-center-x="-4.1445487"
     inkscape:transform-center-y="-1.1910307"><tspan
       sodipodi:role="line"
       id="tspan178-20-7-0"
       style="font-size:4.68013px;line-height:0;fill:#ffffff;fill-opacity:1;stroke-width:1.17004"
       x="-151.52423"
       y="72.65979">18</tspan><tspan
       sodipodi:role="line"
       style="font-size:4.68013px;line-height:0;fill:#ffffff;fill-opacity:1;stroke-width:1.17004"
       x="-151.52423"
       y="72.65979"
       id="tspan2" /></text><text
     xml:space="preserve"
     style="font-size:4.68013px;line-height:0;text-align:start;writing-mode:lr-tb;direction:ltr;text-anchor:start;fill:#000000;stroke-width:1.17004"
     x="-159.43761"
     y="76.882797"
     id="text179-9-3-5-3"
     transform="matrix(0.01744125,-0.85449932,1.1697886,0.02387664,0,0)"
     inkscape:transform-center-x="-4.2080118"
     inkscape:transform-center-y="-1.0306391"><tspan
       sodipodi:role="line"
       id="tspan178-20-7-0-5"
       style="font-size:4.68013px;line-height:0;fill:#ffffff;fill-opacity:1;stroke-width:1.17004"
       x="-159.43761"
       y="76.882797">19</tspan><tspan
       sodipodi:role="line"
       style="font-size:4.68013px;line-height:0;fill:#ffffff;fill-opacity:1;stroke-width:1.17004"
       x="-159.43761"
       y="76.882797"
       id="tspan2-6" /></text><text
     xml:space="preserve"
     style="font-size:4.68013px;line-height:0;text-align:start;writing-mode:lr-tb;direction:ltr;text-anchor:start;fill:#000000;stroke-width:1.17004"
     x="-173.68951"
     y="75.490074"
     id="text179-9-3-9-3-2-3"
     transform="matrix(7.8004437e-4,-0.85467692,1.1700318,0.00106786,0,0)"
     inkscape:transform-center-x="-4.2230208"
     inkscape:transform-center-y="-1.1144961"><tspan
       sodipodi:role="line"
       id="tspan178-20-7-2-6-9-2"
       style="font-size:4.68013px;line-height:0;fill:#ffffff;fill-opacity:1;stroke-width:1.17004"
       x="-173.68951"
       y="75.490074">GND</tspan></text><text
     xml:space="preserve"
     style="font-size:4.68013px;line-height:0;text-align:start;writing-mode:lr-tb;direction:ltr;text-anchor:start;fill:#000000;stroke-width:1.17004"
     x="-185.97899"
     y="75.498268"
     id="text179-9-3-9-3-2-3-9"
     transform="matrix(7.8004437e-4,-0.85467692,1.1700318,0.00106786,0,0)"
     inkscape:transform-center-x="-4.2230208"
     inkscape:transform-center-y="-1.1144961"><tspan
       sodipodi:role="line"
       id="tspan178-20-7-2-6-9-2-1"
       style="font-size:4.68013px;line-height:0;fill:#ffffff;fill-opacity:1;stroke-width:1.17004"
       x="-185.97899"
       y="75.498268">GND</tspan></text><text
     xml:space="preserve"
     style="font-size:4.68013px;line-height:0;text-align:start;writing-mode:lr-tb;direction:ltr;text-anchor:start;fill:#000000;stroke-width:1.17004"
     x="92.602745"
     y="18.777571"
     id="text178-61"
     transform="scale(0.85467733,1.1700322)"><tspan
       sodipodi:role="line"
       id="tspan177-55"
       style="font-size:4.68013px;line-height:0;fill:#ffffff;fill-opacity:1;stroke-width:1.17004"
       x="92.602745"
       y="18.777571">GND</tspan></text><text
     xml:space="preserve"
     style="font-size:4.68013px;line-height:0;text-align:start;writing-mode:lr-tb;direction:ltr;text-anchor:start;fill:#000000;stroke-width:1.17004"
     x="88.18058"
     y="27.39662"
     id="text178-6-4"
     transform="scale(0.85467733,1.1700322)"><tspan
       sodipodi:role="line"
       id="tspan177-7-7"
       style="font-size:4.68013px;line-height:0;fill:#ffffff;fill-opacity:1;stroke-width:1.17004"
       x="88.18058"
       y="27.39662">GPIO0</tspan></text><text
     xml:space="preserve"
     style="font-size:4.68013px;line-height:0;text-align:start;writing-mode:lr-tb;direction:ltr;text-anchor:start;fill:#000000;stroke-width:1.17004"
     x="88.18058"
     y="43.198318"
     id="text178-2-6"
     transform="scale(0.85467733,1.1700322)"
     inkscape:transform-center-x="-1.1162942"
     inkscape:transform-center-y="4.1861034"><tspan
       sodipodi:role="line"
       id="tspan177-9-5"
       style="font-size:4.68013px;line-height:0;fill:#ffffff;fill-opacity:1;stroke-width:1.17004"
       x="88.18058"
       y="43.198318">GPIO2</tspan><tspan
       sodipodi:role="line"
       style="font-size:4.68013px;line-height:0;fill:#ffffff;fill-opacity:1;stroke-width:1.17004"
       x="88.18058"
       y="43.198318"
       id="tspan1" /></text><text
     xml:space="preserve"
     style="font-size:4.68013px;line-height:0;text-align:start;writing-mode:lr-tb;direction:ltr;text-anchor:start;fill:#000000;stroke-width:1.17004"
     x="88.18058"
     y="51.711189"
     id="text179-69"
     transform="scale(0.85467733,1.1700322)"
     inkscape:transform-center-x="-1.1162942"
     inkscape:transform-center-y="4.1861034"><tspan
       sodipodi:role="line"
       id="tspan178-3"
       style="font-size:4.68013px;line-height:0;fill:#ffffff;fill-opacity:1;stroke-width:1.17004"
       x="88.18058"
       y="51.711189">GPIO3</tspan></text><text
     xml:space="preserve"
     style="font-size:4.68013px;line-height:0;text-align:start;writing-mode:lr-tb;direction:ltr;text-anchor:start;fill:#000000;stroke-width:1.17004"
     x="-106.43327"
     y="75.952187"
     id="text179-3-7"
     transform="matrix(0.01155111,-0.85459929,1.1699253,0.01581319,0,0)"
     inkscape:transform-center-x="-4.200803"
     inkscape:transform-center-y="-1.0591265"><tspan
       sodipodi:role="line"
       id="tspan178-6-4"
       style="font-size:4.68013px;line-height:0;fill:#ffffff;fill-opacity:1;stroke-width:1.17004"
       x="-106.43327"
       y="75.952187">GND</tspan></text><text
     xml:space="preserve"
     style="font-size:4.68013px;line-height:0;text-align:start;writing-mode:lr-tb;direction:ltr;text-anchor:start;fill:#000000;stroke-width:1.17004"
     x="-83.023796"
     y="75.831711"
     id="text179-3-7-7"
     transform="matrix(0.01155111,-0.85459929,1.1699253,0.01581319,0,0)"
     inkscape:transform-center-x="-4.200803"
     inkscape:transform-center-y="-1.0591265"><tspan
       sodipodi:role="line"
       id="tspan178-6-4-0"
       style="font-size:4.68013px;line-height:0;fill:#ffffff;fill-opacity:1;stroke-width:1.17004"
       x="-83.023796"
       y="75.831711">GND</tspan></text><text
     xml:space="preserve"
     style="font-size:4.68013px;line-height:0;text-align:start;writing-mode:lr-tb;direction:ltr;text-anchor:start;white-space:pre;inline-size:0;fill:#000000;stroke-width:1.17004"
     x="90.891129"
     y="67.486992"
     id="text179-6-5"
     transform="matrix(-1.7903894e-4,-0.85467732,1.1700322,-2.4511103e-4,8.269083,177.48214)"
     inkscape:transform-center-x="-4.1858707"
     inkscape:transform-center-y="-1.1171804"><tspan
       id="tspan178-2-2"
       style="font-size:4.68013px;line-height:0;fill:#ffffff;fill-opacity:1;stroke-width:1.17004"
       x="90.891129"
       y="67.486992">20</tspan></text><text
     xml:space="preserve"
     style="font-size:4.68013px;line-height:0;text-align:start;writing-mode:lr-tb;direction:ltr;text-anchor:start;white-space:pre;inline-size:0;fill:#000000;stroke-width:1.17004"
     x="90.891129"
     y="67.486992"
     id="text179-6-5-3"
     transform="matrix(-1.7903894e-4,-0.85467732,1.1700322,-2.4511103e-4,8.7939184,157.96497)"
     inkscape:transform-center-x="-4.1858707"
     inkscape:transform-center-y="-1.1171804"><tspan
       id="tspan178-2-2-6"
       style="font-size:4.68013px;line-height:0;fill:#ffffff;fill-opacity:1;stroke-width:1.17004"
       x="90.891129"
       y="67.486992">10</tspan></text><text
     xml:space="preserve"
     style="font-size:4.68013px;line-height:0;text-align:start;writing-mode:lr-tb;direction:ltr;text-anchor:start;white-space:pre;inline-size:0;fill:#000000;stroke-width:1.17004"
     x="90.891129"
     y="67.486992"
     id="text179-6-5-6"
     transform="matrix(-1.7903894e-4,-0.85467732,1.1700322,-2.4511103e-4,8.2685216,186.62043)"
     inkscape:transform-center-x="-4.1858707"
     inkscape:transform-center-y="-1.1171804"><tspan
       id="tspan178-2-2-7"
       style="font-size:4.68013px;line-height:0;fill:#ffffff;fill-opacity:1;stroke-width:1.17004"
       x="90.891129"
       y="67.486992">21</tspan></text></svg>
