<svg width="17.802mm" height="12mm" version="1.1" viewBox="-3 0 18 12" xmlns="http://www.w3.org/2000/svg" xmlns:xlink="http://www.w3.org/1999/xlink">
          <defs>
            <linearGradient x1="0" x2="1" y1="0" y2="1" id="grad-up-pushbutton0">
              <stop stop-color="#ffffff" offset="0"></stop>
              <stop offset="0.3" stop-color="green"></stop>
              <stop offset="0.5" stop-color="green"></stop>
              <stop offset="1"></stop>
            </linearGradient>
            <linearGradient x1="1" x2="0" y1="1" y2="0" id="grad-down-pushbutton0">
              <stop stop-color="#ffffff" offset="0"></stop>
              <stop offset="0.3" stop-color="green"></stop>
              <stop offset="0.5" stop-color="green"></stop>
              <stop offset="1"></stop>
            </linearGradient>
          </defs>
          <rect x="0" y="0" width="12" height="12" rx=".44" ry=".44" fill="#464646"></rect>
          <rect x=".75" y=".75" width="10.5" height="10.5" rx=".211" ry=".211" fill="#eaeaea"></rect>
          <!--?lit$022089032$-->
                <rect style="opacity:0.3;fill:#999999;stroke-width:0.563001;paint-order:stroke markers fill" id="rect17" width="12.087865" height="1.0371729" x="-0.00075517414" y="2.9106798"></rect>
                <rect style="opacity:0.3;fill:#999999;stroke-width:0.534365;paint-order:stroke markers fill" id="rect17-3" width="12.087865" height="0.93434691" x="-0.071111664" y="8.0458994"></rect>
              
          <g fill="#1b1b1">
            <circle cx="1.767" cy="1.7916" r=".37"></circle>
            <circle cx="10.161" cy="1.7916" r=".37"></circle>
            <circle cx="10.161" cy="10.197" r=".37"></circle>
            <circle cx="1.767" cy="10.197" r=".37"></circle>
          </g>
          <g fill="#999" stroke-width="1.0154">
            <path d="m12.365 2.426c0.06012 0 0.10849 0.0469 0.1085 0.10522v0.38698h2.2173c0.12023 0 0.217 0.0938 0.217 0.21045v0.50721c0 0.1166-0.09677 0.21045-0.217 0.21045h-2.2173v0.40101c0 0.0583-0.0484 0.10528-0.1085 0.10528h-0.36835v-1.9266z"></path>
            <path d="m12.365 7.5c0.06012 0 0.10849 0.0469 0.1085 0.10522v0.38698h2.2173c0.12023 0 0.217 0.0938 0.217 0.21045v0.50721c0 0.1166-0.09677 0.21045-0.217 0.21045h-2.2173v0.40101c0 0.0583-0.0484 0.10528-0.1085 0.10528h-0.36835v-1.9266z"></path>
            <path d="m-0.35085 4.3526c-0.06012 0-0.10849-0.0469-0.1085-0.10522v-0.38698h-2.2173c-0.12023 0-0.217-0.0938-0.217-0.21045v-0.50721c0-0.1166 0.09677-0.21045 0.217-0.21045h2.2173v-0.40101c0-0.0583 0.0484-0.10528 0.1085-0.10528h0.36835v1.9266z"></path>
            <path d="m-0.35085 9.4266c-0.06012 0-0.10849-0.0469-0.1085-0.10522v-0.38698h-2.2173c-0.12023 0-0.217-0.0938-0.217-0.21045v-0.50721c0-0.1166 0.09677-0.21045 0.217-0.21045h2.2173v-0.40101c0-0.0583 0.0484-0.10528 0.1085-0.10528h0.36835v1.9266z"></path>
          </g>
          <g class="clickable-element">
            <circle cx="6" cy="6" r="3.822" fill="url(#grad-up-pushbutton0)"></circle>
            <circle class="button-active-circle" cx="6" cy="6" r="3.822" fill="url(#grad-down-pushbutton0)"></circle>
            <circle cx="6" cy="6" r="2.9" stroke="#2f2f2f" stroke-opacity=".47" stroke-width=".08" fill="green"></circle>
          </g>
        </svg>