<svg class="svg-icon" style="width: 0.5em;height: 0.5em;vertical-align: middle;fill: currentColor;overflow: hidden;" viewBox="0 0 1024 1024" version="1.1" xmlns="http://www.w3.org/2000/svg"><path d="M833.706667 216.746667A452.693333 452.693333 0 0 0 508.16 85.333333a426.666667 426.666667 0 0 0-2.133333 853.333334 110.08 110.08 0 0 0 107.946666-80.64 107.52 107.52 0 0 0-24.32-97.28 21.333333 21.333333 0 0 1 15.786667-35.413334h70.4A262.4 262.4 0 0 0 938.666667 483.413333a361.813333 361.813333 0 0 0-104.96-266.666666z m-541.866667 412.16a64 64 0 1 1 17.066667-88.746667 63.573333 63.573333 0 0 1-17.066667 88.746667zM354.133333 394.666667a64 64 0 1 1-23.466666-85.333334 64 64 0 0 1 23.466666 85.333334zM469.333333 298.666667a64 64 0 1 1 64-64A64 64 0 0 1 469.333333 298.666667z m245.333334 34.133333a64 64 0 1 1 23.466666-85.333333 64 64 0 0 1-23.466666 85.333333z"  /></svg>