<svg xmlns="http://www.w3.org/2000/svg" width="45mm" height="31.63mm" version="1.1" viewBox="0 0 170.08 119.55">
        <defs>
          <g id="pin">
            <rect x="0" y="-1.91" width="3.72" height="3.71"></rect>
            <path d="m2.026 -1.91h13.532l-13.425 0.51865z"></path>
            <path d="m2.026 1.80h13.532l-13.425-0.50702z"></path>
            <rect fill="#ccc" x="0.33" y="-1.23" width="3.04" height="2.46" rx=".15"></rect>
          </g>
        </defs>
        <g stroke-width="2.7" fill="none">
          <path stroke="#b44200" d="m 83.32,56.6 c0,0 -32.99,0.96 -43.32,0 -6.20,-0.58 -10.60,-6.20 -14.87,-6.31"></path>
          <path stroke="#ff2300" d="m83.326 59.6h-62.971"></path>
          <path stroke="#f47b00" d="m 83.32,62.6 c0,0 -32.60,-0.61 -43.33,-0.15 -6.87,0.29 -12.01,6.82 -14.77,6.73"></path>
        </g>
        <rect fill="#666" y="45.5" width="25.71" height="28" rx="1.14"></rect>
        <use xlink:href="#pin" x="4.7" y="50.06"></use>
        <use xlink:href="#pin" x="4.7" y="59.66"></use>
        <use xlink:href="#pin" x="4.7" y="69.26"></use>
        <path fill="#4d4d4d" d="m163.92 66.867a7.09 7.09 0 1 1 5.8145-11.136 0.18 0.18 0 0 0 0.33-0.10234v-14.346h-17.664v36.98h17.676v-14.346a0.18 0.18 0 0 0-0.333-0.107 7.08 7.08 0 0 1-5.83 3.06z"></path>
        <path fill="#4d4d4d" d="m55.068 66.75a7.09 7.09 0 1 0-5.8261-11.136 0.18 0.18 0 0 1-0.33-0.10234v-14.346h17.676v36.98h-17.676v-14.346a0.18 0.18 0 0 1 0.333-0.107 7.08 7.08 0 0 0 5.83 3.06z"></path>
        <rect fill="#666" x="64.255" y="37.911" width="90.241" height="43.725" rx="5.3331"></rect>
        <path fill="gray" d="m110.07 50.005h-14.42v19.537h14.42a9.7684 9.7684 0 0 0 0-19.537z"></path>
        <circle fill="#999" cx="91.467" cy="59.773" r="18.606"></circle>
        <path fill="#ccc" transform="translate(91.467 59.773) rotate(0) translate(-91.467 -59.773)" d="m101.6 59.589-4.3167-54.166c0-2.8654-2.6026-5.1912-5.8145-5.1912s-5.8145 2.3258-5.8145 5.1912l-4.3167 54.166a8.3264 8.3264 0 0 0-0.10234 1.2792c0 5.047 4.5818 9.1381 10.234 9.1381s10.234-4.0911 10.234-9.1381a8.3264 8.3264 0 0 0-0.10233-1.2792zm-10.131-48.658a2.791 2.791 0 1 1-2.791 2.791 2.791 2.791 0 0 1 2.791-2.791zm0 8.6055a2.791 2.791 0 1 1-2.791 2.791 2.791 2.791 0 0 1 2.791-2.791zm0 8.3729a2.791 2.791 0 1 1-2.791 2.791 2.791 2.791 0 0 1 2.791-2.791zm0 8.6055a2.791 2.791 0 1 1-2.791 2.791 2.791 2.791 0 0 1 2.791-2.791zm5.9215 29.412a8.3729 8.3729 0 1 1 0-11.843 8.3729 8.3729 0 0 1 0 11.843z"></path>
        <circle fill="gray" cx="91.467" cy="59.773" r="8.3729"></circle>
        <circle fill="#ccc" cx="91.467" cy="59.773" r="6.2494"></circle>
        <path fill="#666" d="m94.911 62.543-2.3839-2.4165a0.42562 0.42562 0 0 1 0-0.60471l2.4281-2.3863a0.64657 0.64657 0 0 0 0.06512-0.8652 0.62797 0.62797 0 0 0-0.93032-0.05117l-2.4351 2.4049a0.4326 0.4326 0 0 1-0.60703 0l-2.3863-2.4165a0.6489 0.6489 0 0 0-0.8652-0.06512 0.63262 0.63262 0 0 0-0.05117 0.93032l2.4049 2.4328a0.42795 0.42795 0 0 1 0 0.60703l-2.4142 2.3863a0.65122 0.65122 0 0 0-0.06745 0.8652 0.63029 0.63029 0 0 0 0.93032 0.05117l2.4351-2.4049a0.42562 0.42562 0 0 1 0.60471 0l2.3863 2.4398a0.63262 0.63262 0 0 0 0.93032-0.04186 0.64657 0.64657 0 0 0-0.04419-0.8652z"></path>
      </svg>