<?xml version="1.0" encoding="UTF-8" standalone="no"?>
<!-- Created with Inkscape (http://www.inkscape.org/) -->

<svg
   width="80mm"
   height="100mm"
   viewBox="0 0 80 100"
   version="1.1"
   id="svg5"
   xml:space="preserve"
   inkscape:version="1.2.1 (9c6d41e410, 2022-07-14)"
   sodipodi:docname="Zilog early logo.svg"
   xmlns:inkscape="http://www.inkscape.org/namespaces/inkscape"
   xmlns:sodipodi="http://sodipodi.sourceforge.net/DTD/sodipodi-0.dtd"
   xmlns="http://www.w3.org/2000/svg"
   xmlns:svg="http://www.w3.org/2000/svg"><sodipodi:namedview
     id="namedview7"
     pagecolor="#ffffff"
     bordercolor="#000000"
     borderopacity="0.25"
     inkscape:showpageshadow="2"
     inkscape:pageopacity="0.0"
     inkscape:pagecheckerboard="0"
     inkscape:deskcolor="#d1d1d1"
     inkscape:document-units="mm"
     showgrid="false"
     inkscape:zoom="0.36172354"
     inkscape:cx="327.59825"
     inkscape:cy="599.90566"
     inkscape:window-width="1366"
     inkscape:window-height="699"
     inkscape:window-x="0"
     inkscape:window-y="0"
     inkscape:window-maximized="1"
     inkscape:current-layer="g988" /><defs
     id="defs2"><rect
       x="75.381973"
       y="783.85126"
       width="628.50653"
       height="229.53252"
       id="rect365" /></defs><g
     inkscape:label="Layer 1"
     inkscape:groupmode="layer"
     id="layer1"><g
       id="g988"
       transform="translate(-0.01080538,0.49916638)"><g
         aria-label="Zilog"
         transform="matrix(0.87939169,0,0,0.87939169,-63.572722,-607.95663)"
         id="text363"
         style="font-size:33.3333px;line-height:0;font-family:'STIX Two Math';-inkscape-font-specification:'STIX Two Math';white-space:pre;shape-inside:url(#rect365);opacity:0.99;stroke-width:1.18186"><path
           d="m 80.688797,774.42322 v 2.63672 h -3.678382 v -6.52669 H 95.17446 v 3.45052 l -12.760404,15.72264 h 9.440095 v -2.62044 h 3.694658 v 6.52669 H 77.010415 v -3.58073 l 12.630196,-15.60871 z"
           style="font-family:'Typo Slab';-inkscape-font-specification:'Typo Slab'"
           id="path970" /><path
           d="m 100.95245,774.92778 v -4.39453 h 4.02018 v 4.39453 z m 0,15.0065 v -9.73307 h -2.148437 v -3.67838 h 6.168617 v 13.41145 h 2.11588 v 3.67838 h -8.268221 v -3.67838 z"
           style="font-family:'Typo Slab';-inkscape-font-specification:'Typo Slab'"
           id="path972" /><path
           d="m 116.47978,789.93428 h 2.13216 v 3.67838 h -8.26822 v -3.67838 h 2.13216 v -15.72265 h -2.13216 v -3.67838 h 6.13606 z"
           style="font-family:'Typo Slab';-inkscape-font-specification:'Typo Slab'"
           id="path974" /><path
           d="m 127.15685,789.13675 q 1.13932,1.26953 2.81575,1.26953 1.69271,0 2.81576,-1.28581 1.2207,-1.38346 1.2207,-4.08528 0,-2.68554 -1.23698,-4.05273 -1.12305,-1.2858 -2.79948,-1.30208 -1.67643,0 -2.81575,1.28581 -1.20442,1.36718 -1.20442,4.069 0,2.7181 1.20442,4.10156 z m -2.57161,-11.08397 q 2.22981,-1.93685 5.35481,-1.93685 h 0.32552 q 3.33659,0.13021 5.51758,2.36002 1.92057,1.98568 2.26236,5.53385 0.0488,0.63477 0.0488,1.23698 0,2.62044 -1.05794,4.67122 -1.00911,1.92057 -2.92969,2.97851 -1.92057,1.05794 -4.13411,1.05794 -0.52083,0 -1.04166,-0.0488 -2.89713,-0.3418 -4.78515,-2.29492 -2.27865,-2.36003 -2.27865,-6.44531 v -0.4069 q 0.0977,-4.42708 2.7181,-6.70572 z"
           style="font-family:'Typo Slab';-inkscape-font-specification:'Typo Slab'"
           id="path976" /><path
           d="m 151.61971,780.93363 q -1.09049,-1.23697 -2.58788,-1.23697 -1.79037,0 -2.75065,1.59505 -0.86263,1.41601 -0.86263,3.49934 0,2.22982 0.8138,3.64583 0.94401,1.6276 2.83203,1.6276 1.52994,0 2.58789,-1.18815 1.07421,-1.2207 1.07421,-4.0039 0,-2.65299 -1.10677,-3.9388 z m 4.93164,-0.73242 v 10.5957 q 0,3.82486 -0.8138,5.51757 -1.80664,3.69466 -6.96614,3.69466 -2.7832,0 -4.62239,-1.22071 -2.18099,-1.44856 -2.27865,-4.15038 l -0.0163,-0.58594 h 3.87369 l 0.0651,0.48828 q 0.26041,1.9043 2.96223,1.9043 2.94596,0 3.58073,-2.29492 0.14648,-0.56966 0.17904,-1.72526 -1.61133,1.18815 -3.69466,1.18815 -3.49935,0 -5.61523,-2.70182 -1.87174,-2.40885 -1.87174,-5.94075 0,-3.5319 1.83919,-6.00586 2.08333,-2.81575 5.66405,-2.81575 2.50651,0 4.29687,1.64388 l 0.52084,-1.26953 h 4.91536 v 3.67838 z"
           style="font-family:'Typo Slab';-inkscape-font-specification:'Typo Slab'"
           id="path978" /></g><path
         style="fill:#33a0e3;fill-opacity:1;stroke:none;stroke-width:0.264583;stroke-opacity:1"
         d="M 4.1597645,57.088576 V 49.782281 L 15.457129,39.640325 C 21.67068,34.062247 33.288528,23.634538 41.274571,16.467637 L 55.794648,3.4369076 h 8.105921 c 6.905867,0 8.048567,0.0541 7.718497,0.365429 -0.21309,0.200985 -4.673678,4.208465 -9.912428,8.9055104 -5.23875,4.697045 -13.454062,12.067718 -18.25625,16.379272 C 38.648201,33.398677 28.230232,42.74384 20.299347,49.854151 12.368461,56.964456 5.4926045,63.144876 5.0196545,63.588426 l -0.85989,0.80644 z m 4.24278,6.84652 c 0.21309,-0.19578 4.4950835,-4.03797 9.5155525,-8.53819 10.293884,-9.22719 41.783518,-37.487279 51.446399,-46.1701054 l 6.36506,-5.719482 0.0706,7.0384534 c 0.0388,3.871148 0.02,7.170169 -0.0417,7.331158 -0.0618,0.160985 -11.671862,10.670027 -25.800192,23.353424 L 24.270343,64.291066 h -8.127611 c -6.8249845,0 -8.0655175,-0.0571 -7.7401875,-0.35597 z m 20.6280525,-0.49815 c 1.767533,-1.60064 23.672649,-21.262532 28.599079,-25.67035 l 4.953199,-4.431771 h 6.639491 6.63948 v 15.478116 15.478125 l -23.878645,-0.008 -23.878646,-0.008 0.926042,-0.83861 z M 4.1597645,18.65045 V 3.4369076 H 28.032395 51.90503 l -0.655447,0.63941 C 50.889088,4.4279936 43.280383,11.274088 34.341348,19.28986 L 18.088557,33.863992 H 11.12416 4.1597645 Z"
         id="path309"
         sodipodi:nodetypes="ccsscssssssccssscccccsscscccccccccccccsscccc" /></g></g></svg>
